<?xml version="1.0" encoding="UTF-8" standalone="no"?>
<!-- Created with Inkscape (http://www.inkscape.org/) -->
<svg xmlns:dc="http://purl.org/dc/elements/1.1/" xmlns:cc="http://creativecommons.org/ns#" xmlns:rdf="http://www.w3.org/1999/02/22-rdf-syntax-ns#" xmlns:svg="http://www.w3.org/2000/svg" xmlns="http://www.w3.org/2000/svg" xmlns:sodipodi="http://sodipodi.sourceforge.net/DTD/sodipodi-0.dtd" xmlns:inkscape="http://www.inkscape.org/namespaces/inkscape" width="177.60626" height="68.88295" viewBox="0 0 46.991657 18.22528" version="1.1" id="svg8" inkscape:version="0.92.5 (2060ec1f9f, 2020-04-08)" sodipodi:docname="logo-dgvs-white.svg">
  <defs id="defs2"/>
  <sodipodi:namedview id="base" pagecolor="#ffffff" bordercolor="#666666" borderopacity="1.0" inkscape:pageopacity="0.0" inkscape:pageshadow="2" inkscape:zoom="3.959798" inkscape:cx="66.921263" inkscape:cy="16.399825" inkscape:document-units="pt" inkscape:current-layer="layer1" showgrid="false" inkscape:window-width="1848" inkscape:window-height="1016" inkscape:window-x="72" inkscape:window-y="27" inkscape:window-maximized="1" fit-margin-top="0" fit-margin-left="0" fit-margin-right="0" fit-margin-bottom="0" units="px"/>
  <metadata id="metadata5">
    <rdf:RDF>
      <cc:Work rdf:about="">
        <dc:format>image/svg+xml</dc:format>
        <dc:type rdf:resource="http://purl.org/dc/dcmitype/StillImage"/>
        <dc:title/>
      </cc:Work>
    </rdf:RDF>
  </metadata>
  <g inkscape:label="Layer 1" inkscape:groupmode="layer" id="layer1" transform="translate(-1.616259,-74.691155)">
    <path style="fill:#e4e7eb;fill-opacity:1;stroke-width:0.08375729" d="m 6.2701645,78.502626 c -0.057583,6e-5 -0.4816031,0.09123 -0.9422687,0.202524 -0.4606656,0.111297 -1.0825631,0.244381 -1.3819953,0.295768 -1.0155762,0.174297 -0.9994565,0.16737 -1.1717842,0.505162 -0.2060597,0.403909 -0.8542617,2.651715 -1.0515466,3.646385 -0.082381,0.415355 -0.1262235,0.848803 -0.097499,0.963206 0.029956,0.119312 0.5835547,0.711678 1.2982378,1.389198 1.3161514,1.247708 1.2603414,1.213158 2.6709081,1.654039 0.6635287,0.207393 3.1702644,1.323376 3.5892963,1.597931 0.354179,0.232066 0.279185,0.572833 -0.30542,1.387891 -0.9036234,1.259819 -1.1938958,2.05104 -0.8711092,2.373824 0.1360904,0.13609 0.5495502,0.180615 2.7232593,0.292824 0.760096,0.03925 1.498697,0.07726 1.64128,0.08442 0.2255,0.01133 0.368986,-0.09977 1.102425,-0.853613 0.784098,-0.805912 0.855067,-0.907152 1.013103,-1.444815 0.492533,-1.675673 0.798141,-3.266474 0.719132,-3.743389 -0.0048,-0.02925 -0.01032,-0.05713 -0.01652,-0.08376 -0.0072,-0.03112 -0.01551,-0.05993 -0.02469,-0.08752 -0.0022,-0.0069 -0.0049,-0.0133 -0.0074,-0.01998 -0.0073,-0.02007 -0.01529,-0.03927 -0.02387,-0.05742 -0.0034,-0.0072 -0.007,-0.01434 -0.01064,-0.02127 -0.0091,-0.01741 -0.01906,-0.03383 -0.0296,-0.0494 -0.0035,-0.0051 -0.0067,-0.0106 -0.01032,-0.01554 -0.01472,-0.02001 -0.03058,-0.03874 -0.04809,-0.05561 -0.0051,-0.0049 -0.01089,-0.009 -0.01621,-0.01358 -0.01627,-0.01418 -0.03381,-0.02713 -0.05251,-0.03894 -0.0049,-0.0032 -0.01,-0.0062 -0.01507,-0.0091 -0.01361,-0.0079 -0.02795,-0.01513 -0.04286,-0.02191 -0.0097,-0.0045 -0.01953,-0.0089 -0.02979,-0.01292 -0.0094,-0.0036 -0.01925,-0.0069 -0.02912,-0.01013 -0.01662,-0.0056 -0.03353,-0.01089 -0.05153,-0.01539 -0.09247,-0.02298 -0.204322,-0.03156 -0.337649,-0.02795 -0.01402,2.69e-4 -0.0283,6.33e-4 -0.04286,0.0013 -0.04809,0.0022 -0.09811,0.0054 -0.15181,0.01048 -1.14e-4,1.5e-5 -2.13e-4,-10e-6 -3.17e-4,0 -0.02697,0.0022 -0.05004,0.0025 -0.07852,0.0054 -0.08824,0.0087 -0.167687,0.01485 -0.239005,0.01817 -0.142634,0.0066 -0.253124,0.0016 -0.338954,-0.02029 -0.02127,-0.0054 -0.04104,-0.01181 -0.05938,-0.01931 -1.52e-4,-6e-5 -3.16e-4,-1.01e-4 -6.33e-4,-1.58e-4 -0.01387,-0.0057 -0.02615,-0.01269 -0.03844,-0.01963 -0.0043,-0.0025 -0.0092,-0.0043 -0.01326,-0.0069 -0.0066,-0.0041 -0.01203,-0.0094 -0.01817,-0.0139 -0.0089,-0.0067 -0.0182,-0.01285 -0.02618,-0.02045 -6.33e-4,-6.33e-4 -9.5e-4,-0.0013 -0.0016,-0.0019 -0.09064,-0.08789 -0.122931,-0.237653 -0.136106,-0.475053 l 0.02092,-0.260503 c 0.01959,-0.07312 -0.0326,-0.09624 -0.120574,-0.08674 -0.04155,0.0045 -0.08617,0.0045 -0.1521,0.006 -0.06593,0.0015 -0.281178,-0.01247 -0.309277,0.01 -0.0281,0.02244 -0.01365,0.137654 -0.01398,0.176863 -4.26e-4,0.05044 0,0.05809 0,0.05809 v 0.04134 0.07316 0.329628 c -3e-6,0.09063 0.0092,0.197089 0.02406,0.295761 7e-6,6e-5 -9e-6,1.17e-4 0,1.68e-4 0.01485,0.09861 0.0353,0.189444 0.05775,0.248492 0.01513,0.03975 0.02783,0.07207 0.04433,0.09848 0.01653,0.0264 0.03682,0.04688 0.06707,0.06265 0.0101,0.0053 0.02118,0.0099 0.0337,0.01425 5.1e-5,2.6e-5 1.11e-4,-1.9e-5 1.61e-4,0 0.03757,0.01282 0.0872,0.0215 0.15492,0.02732 0.135603,0.01168 0.344009,0.01212 0.67464,0.01212 h 0.893192 l -0.04482,0.481606 c -0.0774,0.83397 -0.648682,3.224413 -0.856059,3.581762 -0.25395,0.437617 -1.052177,1.189982 -1.338809,1.261921 -0.123427,0.03096 -0.966194,0.03973 -1.872761,0.01931 -2.2506684,-0.05066 -2.332845,-0.108056 -1.6025111,-1.117148 0.579759,-0.801047 0.893109,-1.36469 0.9601,-1.727 0.06895,-0.3729 -0.180161,-0.998039 -0.474571,-1.190918 -0.377261,-0.24719 -3.3019103,-1.415539 -4.06924,-1.6256 L 4.6172815,86.350419 3.4679087,85.280059 C 2.8358065,84.691439 2.2917117,84.141243 2.2586628,84.057404 2.1103651,83.681147 2.1379659,83.538526 3.0096974,80.182151 L 3.1498927,79.642148 4.4062511,79.32593 c 0.6909969,-0.17391 1.4165466,-0.31724 1.6123282,-0.318506 0.099819,-6.34e-4 0.2309415,-0.01697 0.2827056,-0.02485 0.1241265,-0.0189 0.1324886,-0.07458 0.1324886,-0.243528 0,-0.145236 2.393e-4,-0.254878 -0.1639224,-0.236305 z" id="path2447-5" inkscape:connector-curvature="0" sodipodi:nodetypes="cccccccccccccccccccccccccccccccccccccccccccccccszzsssccccccccccscccccsccccccccccsscc"/>
    <g id="g3082">
      <path inkscape:connector-curvature="0" id="path2445-6" d="m 18.481576,90.903556 c -0.09979,-0.160092 -0.06568,-4.296877 0.04172,-5.060104 0.167136,-1.187725 0.606658,-1.661702 1.553593,-1.675387 0.764449,-0.01105 1.190951,0.45807 1.081294,1.18933 -0.07252,0.483613 -0.506859,0.932645 -1.096444,1.133536 -0.474541,0.161691 -0.900534,0.17996 -0.852739,0.03657 0.03635,-0.10906 0.268246,-0.192775 0.764921,-0.276138 0.58479,-0.09815 0.984267,-0.755817 0.792772,-1.305148 -0.111598,-0.320131 -0.294277,-0.413185 -0.811139,-0.413185 -0.529971,0 -0.869748,0.260275 -1.009542,0.773322 -0.05356,0.19657 -0.136005,1.393897 -0.183214,2.660728 -0.09203,2.469828 -0.155964,3.137421 -0.281218,2.936476 z" style="fill:#e4e7eb;fill-opacity:1;stroke-width:0.08375729"/>
      <path sodipodi:nodetypes="cccccccccsccccccccccccccccccccsccccccccccccccccccsccccccssscccscsscsccccccccccccccsccccccccccsscccscccccccccccccccccscccccscccccccccscsscs" inkscape:connector-curvature="0" id="path2443-2" d="m 28.908817,87.945465 c 0.04493,-0.01165 0.232453,-0.07503 0.420688,-0.156008 l 0.413061,-0.177817 0.272536,0.204813 c 0.149889,0.112636 0.33706,0.22859 0.416008,0.257654 0.203547,0.07495 1.024388,-0.154875 1.492418,-0.417974 l 0.39654,-0.222971 0.248324,0.208906 c 0.136534,0.114884 0.461331,0.256625 0.721755,0.314904 0.260417,0.05828 0.473426,0.134027 0.473426,0.168494 0,0.03447 -0.131269,0.216035 -0.291678,0.403409 -0.160415,0.187415 -0.331559,0.445882 -0.380344,0.574198 -0.109319,0.287531 -0.03241,0.677948 0.155081,0.787352 0.208821,0.121852 0.362274,0.103868 0.659261,-0.07722 0.286252,-0.174534 0.388376,-0.432457 0.493221,-1.244574 0.06768,-0.524263 0.167465,-0.608772 0.948977,-0.805184 0.295663,-0.07431 0.662351,-0.212392 0.814994,-0.306727 0.325548,-0.201201 0.395707,-0.172122 0.613294,0.254377 0.270981,0.531164 0.494677,0.526121 1.070033,-0.02438 l 0.355804,-0.340432 0.327995,0.320305 c 0.388384,0.379252 0.864359,0.50348 1.411769,0.368238 0.196567,-0.04856 0.377942,-0.121389 0.402918,-0.161786 0.07553,-0.122199 0.290001,-0.08304 0.51514,0.09406 0.295556,0.232484 0.581026,0.210055 1.188308,-0.09341 l 0.522174,-0.260921 0.250781,0.23998 c 0.210505,0.201521 0.315167,0.238005 0.653044,0.22771 0.437788,-0.01333 1.032543,-0.243389 1.545913,-0.597908 0.311945,-0.215424 0.330612,-0.218565 0.418785,-0.06871 0.20637,0.350701 0.493005,0.637007 0.637833,0.637007 0.08454,0 0.233649,-0.103649 0.331264,-0.230331 0.09761,-0.126682 0.250009,-0.32456 0.338631,-0.439725 l 0.161133,-0.209394 0.0028,0.316218 c 0.0025,0.276983 -0.05861,0.376169 -0.492237,0.800433 -0.547426,0.535662 -0.745901,0.995942 -0.597753,1.385596 0.110275,0.290044 0.456914,0.374272 0.686255,0.166863 0.279183,-0.252478 0.498172,-0.76442 0.559145,-1.30756 0.03569,-0.317908 0.103491,-0.531006 0.1824,-0.572893 0.0691,-0.03668 0.427161,-0.207048 0.795694,-0.37854 0.784389,-0.365007 0.740137,-0.465933 -0.0705,-0.160805 -0.769346,0.289573 -0.795042,0.284011 -0.825305,-0.179953 -0.01405,-0.215206 -0.0671,-0.405017 -0.117948,-0.421725 -0.05085,-0.01672 -0.250012,0.178218 -0.442508,0.433181 -0.37954,0.502687 -0.610833,0.585316 -0.770827,0.275154 -0.05347,-0.103649 -0.19135,-0.314619 -0.306402,-0.468681 l -0.209229,-0.28006 -0.429421,0.4178 c -0.507074,0.493312 -0.859851,0.68691 -1.251614,0.68691 -0.396989,0 -0.702323,-0.267917 -0.841662,-0.738273 l -0.116311,-0.392452 -0.469011,0.01621 c -0.533956,0.01842 -0.973089,0.20492 -1.640299,0.696885 -0.556426,0.410268 -1.005395,0.548613 -1.368907,0.421896 -0.370619,-0.129196 -0.551133,-0.320014 -0.650103,-0.687566 -0.04765,-0.176946 -0.119737,-0.321776 -0.160314,-0.321776 -0.04058,0 -0.280136,0.188453 -0.532155,0.418784 -0.252022,0.230334 -0.518426,0.418787 -0.592192,0.418787 -0.07521,0 -0.248283,-0.202324 -0.394082,-0.460665 -0.142992,-0.253365 -0.292543,-0.480793 -0.332249,-0.505323 -0.03971,-0.02453 -0.13126,0.06969 -0.203503,0.209393 -0.07225,0.139706 -0.139854,0.25421 -0.150174,0.254378 -0.01032,1.68e-4 -0.295971,0.113231 -0.634725,0.251272 -0.338757,0.13805 -0.706239,0.250945 -0.816634,0.250945 -0.18166,0 -0.200723,-0.03536 -0.200723,-0.371999 0,-0.204579 -0.03769,-0.395235 -0.08376,-0.423694 -0.04692,-0.029 -0.08376,0.03628 -0.08376,0.148544 0,0.321618 -0.075,0.314926 -0.403082,-0.03583 -0.253817,-0.271358 -0.369559,-0.332575 -0.649119,-0.343373 -0.359524,-0.0139 -0.623601,0.118651 -1.570289,0.787846 -0.872192,0.616529 -1.539007,0.498818 -1.742053,-0.307547 -0.111529,-0.442925 -0.330647,-0.522117 -1.038786,-0.375108 -0.366099,0.076 -0.601533,0.204997 -1.106676,0.606421 -0.532161,0.42289 -0.708284,0.516244 -1.032081,0.547369 -0.220688,0.02121 -0.473198,-0.0067 -0.580738,-0.06429 -0.174793,-0.09355 -0.185756,-0.140152 -0.134798,-0.573704 0.04405,-0.374788 0.03416,-0.450488 -0.04809,-0.368239 -0.111379,0.11138 -0.89102,0.140947 -1.039279,0.03943 -0.04943,-0.03385 -0.11522,-0.129949 -0.146084,-0.21348 -0.02498,-0.06761 -0.06271,-0.1 -0.100281,-0.103064 l -6.7e-5,-1.3e-5 c -0.06261,-0.0051 -0.124491,0.07129 -0.124491,0.202357 0,0.207301 -0.392035,0.557749 -0.850988,0.760685 -1.101513,0.487083 -1.854236,0.196275 -1.727494,-0.66728 0.03626,-0.24715 0.03192,-0.250164 -0.346643,-0.24652 -1.107353,0.0106 -2.031137,0.881159 -1.384611,1.304777 0.184018,0.120579 0.261376,0.125477 0.565359,0.03566 0.193695,-0.05723 0.489061,-0.180162 0.656317,-0.27319 l 0.304113,-0.169156 0.322597,0.219211 c 0.480362,0.326417 0.924937,0.298098 1.774769,-0.112874 l 0.686581,-0.331919 v 0.290041 c 0,0.159576 0.03325,0.290203 0.07394,0.290203 0.08523,0 0.174607,-0.288661 0.176184,-0.569617 9.49e-4,-0.181445 0.02903,-0.19116 0.481606,-0.167516 0.479083,0.02504 0.480751,0.02602 0.528391,0.321128 0.07384,0.457389 0.129354,0.499761 0.65697,0.499761 0.349517,0 0.597563,-0.05792 0.895483,-0.209065 0.226618,-0.114975 0.417813,-0.209226 0.424841,-0.209393 0.007,-1.68e-4 0.05358,0.116916 0.103551,0.260265 0.06539,0.187586 0.128315,0.246283 0.224443,0.209394 0.241747,-0.04323 0.465425,-0.09236 0.709381,-0.156601 z m -0.462855,0.03195 c -0.334483,-0.07159 -0.36551,-0.303521 -0.08048,-0.601027 0.41855,-0.436876 1.076821,-0.641252 1.182088,-0.366931 0.07903,0.205943 -0.142026,0.530819 -0.512358,0.752834 -0.0867,0.05198 -0.168031,0.109594 -0.187423,0.125372 -0.132783,0.05018 -0.266946,0.120411 -0.401824,0.08975 z M 21.46597,86.887249 c 0.07299,0.0019 0.131978,0.02042 0.169643,0.05808 0.15454,0.154543 -0.0098,0.512161 -0.333885,0.726664 -0.390854,0.258651 -0.777489,0.342818 -0.918384,0.200071 -0.171625,-0.173888 -0.123169,-0.295012 0.243908,-0.60921 0.274622,-0.235073 0.619758,-0.380936 0.838718,-0.375602 z m 11.577647,0.03877 c 0.02985,-6.33e-4 0.06299,-3.17e-4 0.100116,3.16e-4 0.470384,0.0086 0.8899,0.307959 0.854916,0.61002 -0.02074,0.178928 -0.07379,0.225083 -0.276954,0.240974 -0.498805,0.03905 -0.998722,-0.310969 -0.948654,-0.664174 0.0207,-0.146129 0.06167,-0.183686 0.270576,-0.187146 z m 9.032865,0.03632 c 0.272504,-2.5e-4 0.314091,0.02529 0.314091,0.193363 0,0.197684 -0.314553,0.548309 -0.643557,0.717338 -0.26496,0.136122 -0.692652,0.11778 -0.750216,-0.03223 -0.125109,-0.326035 0.553209,-0.877836 1.079682,-0.878471 z m 4.585877,1.293657 c 0.0449,-2.51e-4 0.08603,0.01339 0.121545,0.04287 0.07123,0.05911 0.129562,0.217485 0.129562,0.351876 0,0.308693 -0.284846,0.875018 -0.497307,0.988727 -0.448054,0.239791 -0.629068,-0.115368 -0.372655,-0.731073 0.161191,-0.387062 0.42427,-0.651256 0.618855,-0.652395 z m -12.729146,0.17177 c 0.37009,0 0.320412,0.695679 -0.08032,1.124675 -0.270183,0.289231 -0.358162,0.312198 -0.507289,0.132504 -0.244396,-0.294473 0.205557,-1.257179 0.587611,-1.257179 z" style="fill:#e4e7eb;fill-opacity:1;stroke-width:0.08375729"/>
    </g>
    <g id="g3088">
      <path inkscape:connector-curvature="0" id="path2429-1" d="m 32.275841,85.449936 c -1.494777,-0.265384 -2.499893,-0.886275 -3.014229,-1.861976 -0.208995,-0.39646 -0.230293,-0.518375 -0.229973,-1.316377 6.33e-4,-1.404188 0.374348,-2.282564 1.256008,-2.951538 0.685055,-0.519796 1.25464,-0.650182 2.83563,-0.649103 1.505298,9.5e-4 1.973852,0.05203 2.039061,0.221968 0.02425,0.06317 0.01931,0.312967 -0.01092,0.555109 l -0.05501,0.44026 -1.35741,-0.0019 c -1.236223,-0.0016 -1.387831,0.0144 -1.698151,0.180498 -0.86104,0.460887 -1.178673,1.168523 -1.104943,2.461635 0.05337,0.935947 0.200635,1.211829 0.812948,1.522902 0.392883,0.199597 0.551969,0.230332 1.19218,0.230332 h 0.738794 v -0.795694 -0.795694 h -0.554191 c -0.533842,0 -0.552336,-0.0069 -0.503686,-0.188453 0.02776,-0.103649 0.05102,-0.367485 0.05165,-0.586303 l 0.0013,-0.39785 h 1.423875 1.423872 l -9.5e-4,1.528572 c -0.0013,2.082225 -0.008,2.113542 -0.490929,2.287994 -0.458975,0.16579 -2.087242,0.23412 -2.754785,0.115602 z" style="fill:#e4e7eb;fill-opacity:1;stroke-width:0.08375729"/>
      <path inkscape:connector-curvature="0" id="path2427-2" d="m 44.24649,85.418406 c -0.384276,-0.06239 -0.738238,-0.152988 -0.78658,-0.201331 -0.110864,-0.110863 -0.185918,-0.856616 -0.114751,-1.140174 0.06522,-0.25986 0.14427,-0.26458 0.61499,-0.03671 0.451403,0.218521 1.113827,0.31064 1.613202,0.224342 0.502927,-0.08691 0.943516,-0.537138 0.905383,-0.925196 -0.03423,-0.34846 -0.345193,-0.525891 -1.383893,-0.789645 -0.443404,-0.112592 -0.903462,-0.255555 -1.02235,-0.317696 -0.294679,-0.154017 -0.64747,-0.539097 -0.755259,-0.824384 -0.116739,-0.30899 -0.113767,-1.047038 0.0057,-1.405922 0.140792,-0.423068 0.697974,-0.953371 1.277411,-1.215783 0.471226,-0.213408 0.593109,-0.231683 1.517467,-0.22751 0.643037,0.0028 1.125771,0.04731 1.340116,0.123272 l 0.335031,0.118734 -0.02301,0.494088 c -0.03262,0.700152 -0.08587,0.736762 -0.706879,0.485927 -1.071044,-0.432615 -1.827347,-0.185559 -2.036447,0.665223 -0.07893,0.321166 0.193734,0.562225 1.008465,0.891561 1.707478,0.690212 2.024054,0.917615 2.138209,1.535907 0.188131,1.018978 -0.579386,2.225628 -1.586781,2.494656 -0.540034,0.144216 -1.619714,0.167582 -2.339983,0.05064 z" style="fill:#e4e7eb;fill-opacity:1;stroke-width:0.08375729"/>
      <path inkscape:connector-curvature="0" id="path2425-7" d="m 39.234835,85.378937 c -0.422757,-0.02858 -0.791825,-0.07515 -0.820145,-0.103468 -0.09049,-0.0905 -2.305911,-6.363087 -2.305911,-6.528818 0,-0.05026 0.349122,-0.07305 0.896567,-0.05853 l 0.896569,0.02377 0.407366,1.298237 c 1.176022,3.747862 1.251295,3.967791 1.317371,3.848919 0.03721,-0.06695 0.397495,-1.261257 0.800629,-2.654023 l 0.732967,-2.532305 0.284017,-0.05328 c 0.311257,-0.05839 1.16699,-0.0079 1.248543,0.07362 0.02814,0.02814 -0.453793,1.551513 -1.070945,3.385287 l -1.122096,3.334133 -0.248138,0.0092 c -0.136476,0.0051 -0.594033,-0.01418 -1.016794,-0.04276 z" style="fill:#e4e7eb;fill-opacity:1;stroke-width:0.08375729"/>
      <path sodipodi:nodetypes="ccccccccsscccccccccsccc" inkscape:connector-curvature="0" id="path2421-9" d="m 21.702522,78.560284 v 3.405094 3.405256 l 2.114868,-1.68e-4 h 2.000617 c 0.113164,-1.77e-4 0.141915,-0.01311 0.217613,-0.04902 l 0.399186,-0.189327 c 0.629577,-0.298503 0.992764,-0.602289 1.255378,-1.050409 0.502316,-0.857117 0.689864,-1.864465 0.508926,-2.732249 -0.238068,-1.14178 -0.827015,-1.876535 -1.916276,-2.390519 L 25.975251,78.813804 C 25.775414,78.68068 25.600892,78.672642 25.37107,78.666007 l -1.679314,-0.04847 z m 1.842659,1.341423 0.788334,0.04711 c 1.618032,0.09654 2.135442,0.651405 2.141045,2.296291 0.0013,0.330983 -0.03781,0.707895 -0.0867,0.837572 -0.147261,0.39061 -0.584603,0.774823 -1.033878,0.908248 -0.228435,0.06784 -0.728871,0.123342 -1.112074,0.123342 h -0.696723 v -2.106201 z" style="fill:#e4e7eb;fill-opacity:1;stroke-width:0.08375729"/>
    </g>
    <path inkscape:connector-curvature="0" id="path2679-5-8-4-9-8" d="m 11.651647,85.704497 c 0,-0.182413 0.387122,-0.663487 0.571212,-0.709838 0.213579,-0.05379 1.187691,0.112658 1.187691,0.202939 0,0.03102 -0.124289,0.176895 -0.276198,0.324132 -0.258711,0.250752 -0.314391,0.267701 -0.87945,0.267701 -0.351895,0 -0.603255,-0.03539 -0.603255,-0.08493 z M 9.9081159,85.205591 c -0.501287,-0.242418 -0.710098,-0.391468 -0.770324,-0.549873 -0.103336,-0.271795 -0.108572,-0.960215 -0.0073,-0.960215 0.04143,0 0.578519,0.244956 1.1935411,0.544355 0.615021,0.299396 1.165338,0.544391 1.22292,0.544422 0.276806,1.68e-4 -0.02558,0.438405 -0.45516,0.659654 -0.288823,0.148753 -0.450548,0.116188 -1.1836731,-0.238343 z m 4.1402391,0.128296 c 0.0482,-0.125605 0.510553,-0.266682 0.595524,-0.181704 0.02681,0.02681 -0.08774,0.10578 -0.25457,0.175487 -0.374007,0.156268 -0.398708,0.156718 -0.340954,0.0062 z m -0.86076,-0.645734 c -0.278968,-0.06263 -0.39308,-0.131542 -0.491889,-0.230414 0.04548,-0.125197 0.129361,-0.303011 0.342553,-0.620805 0.2067,-0.308117 0.404603,-0.560215 0.439776,-0.560215 0.03518,0 0.278433,0.07538 0.540566,0.167518 0.262136,0.09213 0.531864,0.16751 0.599393,0.16751 0.314648,0 0.17159,0.41156 -0.327538,0.942272 -0.234222,0.24904 -0.465652,0.277185 -1.102861,0.134134 z m 1.685758,-0.07085 c 0.02925,-0.126815 0.136321,-0.350625 0.273111,-0.486842 0.120509,-0.149187 0.207336,-0.205044 0.285622,-0.300688 0.100664,-0.01127 0.24736,-0.02235 0.478979,-0.03357 0.314411,-0.01523 0.514747,0.0087 0.514747,0.0616 0,0.04759 -0.216725,0.256663 -0.481606,0.46461 -0.160048,0.125644 -0.393364,0.310364 -0.525966,0.37457 -0.166765,0.02387 -0.427924,0.0054 -0.544887,-0.07968 z M 10.981591,84.081675 C 9.5076349,83.406969 9.2226869,83.200864 9.2226869,82.809459 c 0,-0.370334 0.179261,-1.124131 0.267332,-1.124131 0.03907,0 0.400085,0.163853 0.8022461,0.364114 0.402162,0.200264 1.174069,0.527397 1.715351,0.726962 0.541281,0.199564 0.98358,0.384348 0.98288,0.410639 -0.0028,0.111269 -1.016787,1.262124 -1.110487,1.26057 -0.0565,-9.5e-4 -0.460789,-0.165607 -0.898418,-0.365938 z M 8.1825754,83.92133 C 7.8722075,83.514416 7.7150561,83.081988 7.7150561,82.634875 c 0,-0.164648 -0.014657,-0.336387 -0.018582,-0.424331 -0.070185,-0.07967 -0.1113352,-0.113136 -0.1778672,-0.185601 -0.073227,-0.07975 -0.1448783,-0.136135 -0.2074881,-0.184835 0.00222,-0.111636 0.046924,-0.295682 0.098445,-0.678261 0.048076,-0.357017 0.1237033,-0.649119 0.1680601,-0.649119 0.044357,0 0.3590806,0.209565 0.6993889,0.465702 0.4412224,0.332091 0.6069741,0.506311 0.5777243,0.607241 -0.3786061,1.306363 -0.4147038,1.525849 -0.2685435,1.632727 0.047757,0.03492 0.099762,0.06572 0.1455778,0.103757 -0.00323,0.08592 -0.030232,0.222224 -0.058991,0.438918 -0.068425,0.515807 -0.1889533,0.555207 -0.4901978,0.160257 z m 6.6518496,-0.645501 c -0.115169,-0.03888 -0.426116,-0.131019 -0.690997,-0.204756 -0.264884,-0.07373 -0.481606,-0.16881 -0.481606,-0.21128 0,-0.04247 0.109382,-0.239297 0.243066,-0.437389 0.133688,-0.198089 0.460435,-0.906681 0.726101,-1.574648 0.265666,-0.667964 0.51162,-1.247559 0.546565,-1.28799 0.03495,-0.04043 0.330387,0.09149 0.656545,0.293153 0.581473,0.359527 0.5921,0.37236 0.546413,0.659809 -0.115264,0.725271 -1.02334,2.765947 -1.252937,2.815657 -0.04607,0.01 -0.177981,-0.01368 -0.29315,-0.05256 z m 1.005087,-0.0081 c 0,-0.0886 1.069787,-2.416626 1.150504,-2.50369 0.02137,-0.02305 0.168928,0.107992 0.327937,0.291168 0.224725,0.258876 0.277367,0.379819 0.236391,0.543071 -0.108008,0.430357 -0.558918,1.515687 -0.680003,1.636773 -0.15007,0.150066 -1.034829,0.178006 -1.034829,0.03268 z m -3.20721,-0.637614 c -0.279861,-0.04217 -2.222301,-1.021935 -2.569399,-1.296006 -0.1277491,-0.100873 -0.2173781,-0.175531 -0.2923111,-0.28321 0.03502,-0.158551 0.06644,-0.345304 0.160241,-0.611157 0.2050061,-0.581051 1.1338241,-2.386549 1.3282351,-2.581916 l 0.183188,-0.184084 0.5863,0.250167 c 0.93917,0.400737 2.411729,1.194246 2.505318,1.35003 0.101081,0.168253 -0.201904,1.174889 -0.709133,2.35603 -0.454379,1.058064 -0.508229,1.103231 -1.192439,1.000146 z M 6.7125771,80.790911 c -0.1477399,-0.187234 -0.1781078,-0.31109 -0.1462362,-0.596414 0.052125,-0.466627 0.10124,-0.504608 0.3501566,-0.270763 0.1795419,0.168668 0.199536,0.24281 0.1563283,0.579652 -0.065813,0.513089 -0.1372649,0.570114 -0.3602487,0.287525 z M 17.352237,80.518179 c -0.251506,-0.269237 -0.2598,-0.300966 -0.20714,-0.792085 0.03753,-0.350033 0.04811,-0.548654 0.113412,-0.620973 0.05535,0.02279 0.140355,0.06494 0.237261,0.188137 0.198827,0.252772 0.329194,1.128854 0.201837,1.356418 -0.07559,0.135078 -0.107811,0.122811 -0.34537,-0.131497 z M 8.3321166,80.361626 c -0.529534,-0.418572 -0.7845761,-0.737231 -0.7845761,-0.980278 0,-0.368606 0.7043653,-1.714711 1.1817455,-2.258418 0.2312429,-0.26337 0.2659189,-0.275856 0.5584299,-0.201039 0.302865,0.07747 1.0388141,0.326614 1.0921171,0.369726 0.01453,0.01174 -0.09518,0.260756 -0.243814,0.553337 -0.1486321,0.292577 -0.4637041,0.97005 -0.7001611,1.505497 -0.23646,0.535448 -0.485795,1.057685 -0.55408,1.160526 l -0.1241564,0.186991 z m 7.6620974,-0.890767 c -0.260408,-0.204436 -0.499344,-0.413564 -0.530972,-0.464733 -0.07353,-0.118971 0.195386,-1.341151 0.295088,-1.341151 0.0412,0 0.274194,0.162188 0.51777,0.360423 0.42541,0.346218 0.443894,0.3784 0.469045,0.816634 0.03258,0.56761 -0.04383,1.000649 -0.17655,1.00058 -0.0555,-2.9e-5 -0.31397,-0.16732 -0.574381,-0.371753 z M 6.4307759,78.949246 c -0.097017,-0.09702 -0.05323,-0.977819 0.065104,-1.309571 0.062471,-0.175145 0.2167063,-0.46725 0.3427427,-0.649119 0.1865221,-0.269154 0.2776796,-0.32958 0.4899762,-0.32479 0.1434505,0.0032 0.3261929,0.0318 0.4060965,0.06346 0.1305981,0.05175 0.1203541,0.09522 -0.1013856,0.430159 -0.1356631,0.204921 -0.3706446,0.703675 -0.5221833,1.108337 -0.2249275,0.600644 -0.3075663,0.735902 -0.4500165,0.73656 -0.095972,3.1e-4 -0.1996214,-0.02431 -0.2303344,-0.05504 z M 14.29,78.470881 c -0.36853,-0.191498 -1.096384,-0.543558 -1.617453,-0.78236 -0.524694,-0.240461 -0.824774,-0.370439 -0.946923,-0.459083 0.04704,-0.149453 0.203019,-0.366865 0.530737,-0.806951 0.402,-0.539844 0.348052,-0.544868 1.843742,0.17171 0.689152,0.330166 1.084517,0.567823 1.117493,0.671719 0.05654,0.17813 -0.129889,1.577091 -0.2082,1.562396 -0.02713,-0.0051 -0.350863,-0.165936 -0.719396,-0.357431 z m 2.976632,-0.129788 c -0.04752,-0.0888 -0.06196,-0.225133 -0.03209,-0.302979 0.04696,-0.122374 0.06919,-0.114691 0.164246,0.05675 0.06046,0.109056 0.111275,0.245397 0.112902,0.30298 0.0045,0.159952 -0.147984,0.124634 -0.245055,-0.05675 z m -0.953288,-0.816466 c -0.348862,-0.329134 -0.473832,-0.579431 -0.473832,-0.949012 0,-0.198447 0.05215,-0.2481 0.09849,-0.347393 0.07831,-0.0033 0.216592,0.196108 0.38915,0.383314 0.348574,0.378156 0.511303,0.845865 0.377486,1.084978 -0.06024,0.107641 -0.125308,0.07906 -0.391294,-0.171887 z m -1.478919,-1.0323 c -0.253368,-0.133874 -0.790461,-0.363398 -1.193541,-0.510052 -0.403082,-0.146657 -0.732878,-0.310378 -0.732878,-0.363826 0,-0.05344 0.144271,-0.238049 0.320599,-0.410228 0.36477,-0.35619 0.304518,-0.362078 1.375486,0.134524 0.643699,0.298478 0.732992,0.366168 0.733799,0.556274 6.33e-4,0.119043 0.02428,0.357779 0.05284,0.530531 0.02855,0.172748 0.01871,0.312308 -0.02187,0.31014 -0.04058,-0.0022 -0.281076,-0.113485 -0.534444,-0.247363 z M 9.6833529,76.305248 c -0.276401,-0.04707 -0.517289,-0.09864 -0.535314,-0.114615 -0.07428,-0.06582 0.681971,-0.940682 0.8527221,-0.986461 0.101823,-0.02729 0.425676,-0.05008 0.719671,-0.05078 0.203892,-6.34e-4 0.410668,0.03159 0.542083,0.0019 0.12446,-0.02817 0.175984,-0.116403 0.279781,-0.180555 0.306693,-0.189548 1.36571,-0.331853 1.36571,-0.183518 0,0.04434 -0.0848,0.1602 -0.188453,0.257461 -0.06772,0.06354 -0.102126,0.09904 -0.210555,0.190571 -0.129472,0.039 -0.361582,0.02115 -0.606079,0.0434 l -0.628178,0.05713 -0.293597,0.513506 c -0.157594,0.275641 -0.297822,0.478203 -0.367206,0.538391 -0.104311,0.02529 -0.459526,-0.0061 -0.9305851,-0.08636 z M 6.8984218,76.062381 c -0.1497153,-0.04254 -0.2722125,-0.127679 -0.2722125,-0.189197 0,-0.152004 0.5721116,-0.538015 0.892315,-0.602055 0.1803175,-0.03606 0.2787369,0.03366 0.3370795,0.0837 -0.035715,0.06579 -0.1036048,0.191378 -0.3241922,0.416575 -0.1861074,0.189995 -0.3191714,0.325376 -0.3694037,0.359014 -0.063626,-0.0065 -0.1506333,-0.03594 -0.2635861,-0.06804 z" style="fill:#e4e7eb;fill-opacity:1;stroke-width:0.08375729" sodipodi:nodetypes="scscssccssccccccccccccscsccccccsccccsscsccccsccccssccccccssccccsccsccccsccccccccsccssccsscccssccccccccsccscsccccccccccccsccccccscccsccccccccscscccccccccsscscccccccccccccccc"/>
  </g>
</svg>