<?xml version="1.0" encoding="UTF-8" standalone="no"?>
<!-- Created with Inkscape (http://www.inkscape.org/) -->
<svg xmlns:dc="http://purl.org/dc/elements/1.1/" xmlns:cc="http://creativecommons.org/ns#" xmlns:rdf="http://www.w3.org/1999/02/22-rdf-syntax-ns#" xmlns:svg="http://www.w3.org/2000/svg" xmlns="http://www.w3.org/2000/svg" xmlns:sodipodi="http://sodipodi.sourceforge.net/DTD/sodipodi-0.dtd" xmlns:inkscape="http://www.inkscape.org/namespaces/inkscape" width="270.76535" height="68.88295" viewBox="0 0 71.64 18.22528" version="1.1" id="svg8" inkscape:version="0.92.5 (2060ec1f9f, 2020-04-08)" sodipodi:docname="logo-mspbs-white.svg">
  <defs id="defs2"/>
  <sodipodi:namedview id="base" pagecolor="#ffffff" bordercolor="#666666" borderopacity="1.0" inkscape:pageopacity="0.0" inkscape:pageshadow="2" inkscape:zoom="3.959798" inkscape:cx="18.920258" inkscape:cy="29.780423" inkscape:document-units="pt" inkscape:current-layer="layer1" showgrid="false" inkscape:window-width="1848" inkscape:window-height="1016" inkscape:window-x="72" inkscape:window-y="27" inkscape:window-maximized="1" fit-margin-top="0" fit-margin-left="0" fit-margin-right="0" fit-margin-bottom="0" units="px"/>
  <metadata id="metadata5">
    <rdf:RDF>
      <cc:Work rdf:about="">
        <dc:format>image/svg+xml</dc:format>
        <dc:type rdf:resource="http://purl.org/dc/dcmitype/StillImage"/>
        <dc:title/>
      </cc:Work>
    </rdf:RDF>
  </metadata>
  <g inkscape:label="Layer 1" inkscape:groupmode="layer" id="layer1" transform="translate(-53.586479,-74.691155)">
    <g id="g2444">
      <g id="g2276">
        <rect id="rect1062" height="3.53" width="3.8800001" y="81.896431" x="61.03648" class="BoundingBox" style="fill:none;fill-rule:evenodd;stroke:none;stroke-width:0.28222001;stroke-linejoin:round"/>
        <path id="path1064" d="m 62.976479,81.89643 0.48,1.32 1.45,0.03 -1.15,0.85 0.42,1.32 -1.2,-0.78 -1.2,0.78 0.41,-1.32 -1.15,-0.85 1.45,-0.03 z" inkscape:connector-curvature="0" style="fill:#e4e7eb;fill-rule:evenodd;stroke:none;stroke-width:0.28222001;stroke-linejoin:round;fill-opacity:1"/>
        <rect id="rect1069" height="0.76999998" width="1.8" y="87.576431" x="62.586479" class="BoundingBox" style="fill:none;fill-rule:evenodd;stroke:none;stroke-width:0.28222001;stroke-linejoin:round"/>
        <path id="path1071" d="m 64.376479,88.21643 c 0,0 -0.77,-0.38 -0.8,-0.39 -0.03,0 -0.34,-0.16 -0.48,-0.2 -0.1,-0.04 -0.24,-0.05 -0.29,-0.05 -0.12,0.01 -0.22,0.03 -0.22,0.03 l 0.2,0.11 c 0,0 0.15,0.05 0.24,0.1 0.12,0.05 0.12,0.13 0.12,0.13 l 0.56,0.3 0.14,0.09 c 0,0 0.14,-0.14 0.53,-0.12 z" inkscape:connector-curvature="0" style="fill:#e4e7eb;fill-rule:evenodd;stroke:none;stroke-width:0.28222001;stroke-linejoin:round;fill-opacity:1"/>
        <rect id="rect1076" height="1.79" width="2.6400001" y="86.126427" x="63.046478" class="BoundingBox" style="fill:none;fill-rule:evenodd;stroke:none;stroke-width:0.28222001;stroke-linejoin:round"/>
        <path id="path1078" d="m 65.166479,87.66643 c -0.05,0.03 -0.24,0.05 -0.29,0.06 -0.06,0.01 -0.26,0.01 -0.35,0.02 -0.04,0 -0.14,0.01 -0.18,0.01 -0.06,0 -0.19,-0.01 -0.21,-0.02 -0.02,0 -0.1,-0.04 0.02,-0.06 0.12,-0.02 0.23,-0.01 0.31,-0.01 0.04,-0.01 0.12,-0.03 0.17,-0.03 0.06,-0.01 0.22,-0.03 0.26,-0.03 0.04,0 0.18,-0.02 0.24,-0.01 0.02,0 0.08,0.03 0.03,0.07 z m -1.17,-0.18 c 0,0 0.04,-0.09 0.07,-0.13 0.03,-0.05 0.17,-0.35 0.21,-0.44 0.06,-0.08 0.17,-0.29 0.24,-0.39 0.03,-0.04 0.17,-0.19 0.2,-0.12 0.03,0.05 -0.05,0.13 -0.07,0.15 -0.02,0.01 -0.12,0.16 -0.12,0.17 -0.01,0 -0.12,0.21 -0.12,0.21 0,0 -0.14,0.25 -0.15,0.28 -0.01,0.02 -0.09,0.17 -0.12,0.2 -0.03,0.03 -0.05,0.08 -0.09,0.08 -0.05,0.01 -0.05,-0.01 -0.05,-0.01 z m 1.65,0.09 c 0,0 -0.19,-0.03 -0.3,-0.07 -0.12,-0.04 -0.32,-0.06 -0.49,-0.06 -0.16,0 -0.31,0.05 -0.45,0.1 -0.13,0.05 -0.31,0.05 -0.31,0.05 0,0 -0.1,0.02 -0.05,-0.01 0.04,-0.02 0.2,-0.13 0.2,-0.13 l 0.1,-0.13 c 0,0 0.29,-0.56 0.42,-0.78 0.08,-0.12 0.22,-0.38 0.18,-0.42 -0.01,-0.02 -0.39,0.11 -0.47,0.18 -0.09,0.08 -0.16,0.25 -0.19,0.34 -0.03,0.09 -0.17,0.17 -0.17,0.17 -0.12,0.08 -0.21,0.35 -0.25,0.55 -0.04,0.21 -0.71,0.29 -0.71,0.29 0,0 -0.35,0.17 0.26,0.09 0.04,0 0.17,-0.01 0.22,-0.01 0.07,0.01 0.16,0.02 0.21,0.03 0.06,0.01 0.22,0.05 0.34,0.09 0.13,0.04 0.23,0.06 0.32,0.03 0.09,-0.03 0.22,-0.02 0.31,0 0.1,0.02 0.2,0.01 0.26,-0.01 0.07,-0.02 0.24,-0.11 0.24,-0.11 0,0 0.18,-0.07 0.29,-0.12 0.11,-0.05 0.04,-0.07 0.04,-0.07 z" inkscape:connector-curvature="0" style="fill:#e4e7eb;fill-rule:evenodd;stroke:none;stroke-width:0.28222001;stroke-linejoin:round;fill-opacity:1"/>
        <rect id="rect1083" height="1.5700001" width="1.22" y="85.916428" x="64.356476" class="BoundingBox" style="fill:none;fill-rule:evenodd;stroke:none;stroke-width:0.28222001;stroke-linejoin:round"/>
        <path id="path1085" d="m 64.906479,86.76643 c 0.11,-0.11 0.19,-0.13 0.21,-0.18 0.03,-0.06 0.07,-0.21 0.14,-0.27 0.06,-0.07 0.13,-0.17 0.16,-0.14 0.03,0.02 0.03,0.05 -0.01,0.11 -0.03,0.05 -0.08,0.08 -0.1,0.1 -0.03,0.05 -0.07,0.17 -0.1,0.22 -0.02,0.05 -0.08,0.13 -0.18,0.18 -0.09,0.05 -0.11,0.1 -0.12,0.15 -0.01,0.04 -0.04,0.14 -0.11,0.27 -0.02,0.04 -0.11,0.1 -0.16,0.13 -0.06,0.02 -0.11,0.08 -0.13,0.06 -0.06,-0.04 0.05,-0.14 0.19,-0.23 0,0 0.06,-0.05 0.09,-0.15 0.04,-0.09 0.04,-0.16 0.12,-0.25 z m -0.5,0.6 c -0.01,0.03 -0.11,0.14 0.03,0.1 0.13,-0.03 0.21,-0.05 0.32,-0.09 0.14,-0.06 0.22,-0.18 0.32,-0.28 0.11,-0.1 0.3,-0.4 0.35,-0.51 0.06,-0.12 0.25,-0.3 0.03,-0.67 0,0 -0.04,0.07 -0.12,0.14 -0.08,0.07 -0.2,0.15 -0.2,0.15 l -0.15,0.13 c 0,0 -0.51,0.89 -0.58,1.03 z" inkscape:connector-curvature="0" style="fill:#e4e7eb;fill-rule:evenodd;stroke:none;stroke-width:0.28222001;stroke-linejoin:round;fill-opacity:1"/>
        <rect id="rect1090" height="0.5" width="1.42" y="86.976433" x="64.906479" class="BoundingBox" style="fill:none;fill-rule:evenodd;stroke:none;stroke-width:0.28222001;stroke-linejoin:round"/>
        <path id="path1092" d="m 66.266479,87.02643 c 0,0 -0.3,-0.03 -0.32,-0.03 -0.03,0 -0.19,-0.02 -0.42,-0.02 -0.23,0 -0.32,0.07 -0.38,0.14 -0.06,0.06 -0.24,0.23 -0.24,0.23 l 0.1,-0.01 c 0.23,-0.18 0.4,-0.17 0.47,-0.18 0.08,0 0.22,0.01 0.45,-0.07 0.25,-0.07 0.18,0.05 0.15,0.06 -0.02,0.01 -0.13,0.09 -0.31,0.1 -0.17,0.01 -0.35,0.05 -0.41,0.05 -0.07,0 -0.26,0.1 -0.26,0.1 0,0 0.21,0.03 0.27,0.05 0.06,0.02 0.15,0.01 0.23,-0.02 0.21,-0.1 0.31,-0.11 0.39,-0.13 0.09,-0.02 0.2,-0.07 0.2,-0.07 0,0 0.06,-0.05 0.11,-0.14 0.05,-0.09 -0.03,-0.06 -0.03,-0.06 z" inkscape:connector-curvature="0" style="fill:#e4e7eb;fill-rule:evenodd;stroke:none;stroke-width:0.28222001;stroke-linejoin:round;fill-opacity:1"/>
        <rect id="rect1097" height="2.1800001" width="2.1500001" y="84.756432" x="65.316483" class="BoundingBox" style="fill:none;fill-rule:evenodd;stroke:none;stroke-width:0.28222001;stroke-linejoin:round"/>
        <path id="path1099" d="m 66.186479,85.94643 c 0.15,-0.09 0.2,-0.13 0.24,-0.19 0.04,-0.05 0.09,-0.11 0.11,-0.17 0.04,-0.09 0.12,-0.28 0.22,-0.36 0.05,-0.04 0.15,-0.06 0.2,-0.09 0.02,0 0.24,0.04 0.04,0.09 -0.08,0.02 -0.17,0.05 -0.22,0.13 -0.05,0.08 -0.11,0.2 -0.11,0.22 -0.01,0.02 -0.07,0.16 -0.16,0.26 -0.09,0.09 -0.22,0.17 -0.22,0.17 l -0.11,0.06 c 0,0 -0.14,-0.04 0.01,-0.12 z m 1.25,-0.47 c -0.11,0.04 -0.14,0.07 -0.14,0.07 -0.24,0.06 -0.28,0.25 -0.38,0.36 -0.05,0.07 -0.15,0.14 -0.4,0.25 -0.23,0.09 -0.26,0.1 -0.27,0.1 0,0 -0.07,0.01 -0.05,0.05 0,0.01 0.06,0 0.06,0 0,0 0.28,-0.05 0.48,-0.16 0.12,-0.08 0.21,-0.09 0.32,-0.26 0.06,-0.08 0.12,-0.23 0.12,-0.13 0.01,0.25 -0.4,0.49 -0.57,0.56 -0.09,0.04 -0.22,0.05 -0.39,0.08 -0.16,0.03 -0.26,0.02 -0.25,-0.01 0.02,-0.05 0.04,-0.06 0.08,-0.11 0.08,-0.09 0.27,-0.12 0.41,-0.18 0.16,-0.07 0.31,-0.18 0.39,-0.26 0.08,-0.09 0.11,-0.12 0.13,-0.2 0.06,-0.2 0.06,-0.3 0.12,-0.37 0.2,-0.24 0.22,-0.31 0.23,-0.43 0.01,-0.02 -0.1,0.06 -0.15,0.1 -0.11,0.06 -0.15,0.06 -0.37,0.11 -0.22,0.06 -0.22,0.19 -0.25,0.26 -0.01,0.02 -0.1,0.13 -0.14,0.15 -0.05,0.02 -0.15,0.17 -0.19,0.25 -0.03,0.07 -0.08,0.11 -0.12,0.11 -0.05,-0.01 0.08,-0.46 0.11,-0.54 0.03,-0.07 0.03,-0.22 0.03,-0.27 0,-0.04 -0.04,-0.12 -0.13,-0.13 -0.08,-0.02 -0.07,-0.12 -0.07,-0.12 -0.2,0.18 -0.06,0.41 -0.04,0.59 0.02,0.18 -0.04,0.5 -0.04,0.5 0.2,0.08 0.04,0.31 -0.02,0.39 -0.07,0.07 -0.19,0.09 -0.24,0.15 -0.06,0.07 -0.39,0.54 -0.39,0.54 l 0.43,-0.05 c 0,0 0.05,0 -0.03,-0.05 -0.08,-0.05 0.02,-0.26 0.09,-0.31 0.13,-0.1 0.3,-0.03 0.3,-0.03 0,0 0.24,0.04 0.53,-0.08 0.25,-0.09 0.36,-0.24 0.47,-0.35 0.07,-0.06 0.18,-0.27 0.26,-0.39 0.04,-0.07 0.12,-0.2 0.07,-0.19 z" inkscape:connector-curvature="0" style="fill:#e4e7eb;fill-rule:evenodd;stroke:none;stroke-width:0.28222001;stroke-linejoin:round;fill-opacity:1"/>
        <rect id="rect1104" height="0.0099999998" width="0.0099999998" y="86.246429" x="66.236481" class="BoundingBox" style="fill:none;fill-rule:evenodd;stroke:none;stroke-width:0.28222001;stroke-linejoin:round"/>
        <path id="path1106" d="M 66.236479,86.24643 Z" inkscape:connector-curvature="0" style="fill:#1d254b;fill-rule:evenodd;stroke:none;stroke-width:0.28222001;stroke-linejoin:round"/>
        <rect id="rect1111" height="0.31999999" width="0.37" y="86.516434" x="65.756477" class="BoundingBox" style="fill:none;fill-rule:evenodd;stroke:none;stroke-width:0.28222001;stroke-linejoin:round"/>
        <path id="path1113" d="m 65.976479,86.79643 c 0.04,-0.02 0.04,-0.03 0.11,-0.09 0.06,-0.07 0,-0.19 -0.09,-0.19 -0.05,0 -0.1,-0.01 -0.21,0.12 -0.09,0.13 0.05,0.17 0.11,0.18 0.02,0 0.05,-0.01 0.08,-0.02 z" inkscape:connector-curvature="0" style="fill:#e4e7eb;fill-rule:evenodd;stroke:none;stroke-width:0.28222001;stroke-linejoin:round;fill-opacity:1"/>
        <rect id="rect1118" height="0.40000001" width="0.38" y="85.896431" x="65.606476" class="BoundingBox" style="fill:none;fill-rule:evenodd;stroke:none;stroke-width:0.28222001;stroke-linejoin:round"/>
        <path id="path1120" d="m 65.676479,85.99643 c -0.07,0.1 -0.1,0.21 -0.05,0.24 0.01,0 0.06,0.04 0.09,0.04 0.04,0 0.14,-0.05 0.19,-0.13 0.06,-0.08 0.11,-0.18 -0.01,-0.23 -0.11,-0.05 -0.18,0 -0.22,0.08 z" inkscape:connector-curvature="0" style="fill:#e4e7eb;fill-rule:evenodd;stroke:none;stroke-width:0.28222001;stroke-linejoin:round;fill-opacity:1"/>
        <rect id="rect1125" height="1.52" width="0.47" y="84.346428" x="65.586479" class="BoundingBox" style="fill:none;fill-rule:evenodd;stroke:none;stroke-width:0.28222001;stroke-linejoin:round"/>
        <path id="path1127" d="m 66.046479,84.59643 c 0,0 0.01,-0.02 -0.04,-0.06 -0.07,-0.07 -0.11,-0.19 -0.11,-0.19 -0.14,0.07 -0.19,0.22 -0.19,0.28 0,0.07 0.03,0.21 0,0.35 0,0.04 -0.01,0.1 -0.09,0.27 -0.07,0.17 0.01,0.32 0.03,0.37 0.02,0.06 0.08,0.23 0.08,0.23 0,0 0.05,-0.04 0.07,-0.04 0.02,-0.01 0.1,0 0.1,0 0,0 0.03,-0.16 0.04,-0.24 0,-0.06 -0.01,-0.16 -0.04,-0.32 -0.04,-0.23 -0.04,-0.3 -0.01,-0.43 0.03,-0.13 0.16,-0.22 0.16,-0.22 z" inkscape:connector-curvature="0" style="fill:#e4e7eb;fill-rule:evenodd;stroke:none;stroke-width:0.28222001;stroke-linejoin:round;fill-opacity:1"/>
        <rect id="rect1132" height="0.37" width="0.33000001" y="84.486427" x="66.116478" class="BoundingBox" style="fill:none;fill-rule:evenodd;stroke:none;stroke-width:0.28222001;stroke-linejoin:round"/>
        <path id="path1134" d="m 66.276479,84.83643 c 0,0 0.08,-0.02 0.12,-0.08 0.05,-0.09 0.03,-0.17 0.03,-0.17 -0.11,-0.21 -0.27,-0.04 -0.27,-0.04 -0.14,0.28 0.12,0.29 0.12,0.29 z" inkscape:connector-curvature="0" style="fill:#e4e7eb;fill-rule:evenodd;stroke:none;stroke-width:0.28222001;stroke-linejoin:round;fill-opacity:1"/>
        <rect id="rect1139" height="1.05" width="0.58999997" y="84.506432" x="66.216476" class="BoundingBox" style="fill:none;fill-rule:evenodd;stroke:none;stroke-width:0.28222001;stroke-linejoin:round"/>
        <path id="path1141" d="m 66.696479,84.50643 c -0.14,0.01 -0.21,0.26 -0.21,0.26 0,0 -0.03,0.06 -0.1,0.1 -0.08,0.05 -0.04,0.12 -0.04,0.25 0,0.12 -0.09,0.34 -0.09,0.34 l -0.04,0.07 c 0,0 0.01,0.06 0.06,-0.04 0.1,-0.17 0.2,-0.13 0.23,-0.31 0.02,-0.14 0.26,-0.19 0.26,-0.19 l -0.07,-0.01 c -0.24,-0.11 0.02,-0.38 0.06,-0.43 0.04,-0.04 0.08,-0.04 -0.06,-0.04 z" inkscape:connector-curvature="0" style="fill:#e4e7eb;fill-rule:evenodd;stroke:none;stroke-width:0.28222001;stroke-linejoin:round;fill-opacity:1"/>
        <rect id="rect1146" height="0.31999999" width="0.34" y="84.616432" x="66.676476" class="BoundingBox" style="fill:none;fill-rule:evenodd;stroke:none;stroke-width:0.28222001;stroke-linejoin:round"/>
        <path id="path1148" d="m 66.686479,84.77643 c -0.07,0.16 0.15,0.16 0.21,0.14 0.02,-0.01 0.06,-0.07 0.06,-0.07 0.1,-0.12 0.01,-0.21 -0.04,-0.22 -0.04,-0.02 -0.14,-0.03 -0.23,0.15 z" inkscape:connector-curvature="0" style="fill:#e4e7eb;fill-rule:evenodd;stroke:none;stroke-width:0.28222001;stroke-linejoin:round;fill-opacity:1"/>
        <rect id="rect1153" height="1.52" width="0.66000003" y="83.026428" x="65.866478" class="BoundingBox" style="fill:none;fill-rule:evenodd;stroke:none;stroke-width:0.28222001;stroke-linejoin:round"/>
        <path id="path1155" d="m 66.206479,84.11643 c 0.07,0.11 0.25,0.43 0.29,0.41 0.03,-0.01 0.01,-0.08 0.01,-0.08 0,0 -0.01,-0.08 -0.03,-0.19 -0.03,-0.1 -0.12,-0.22 -0.18,-0.3 -0.06,-0.09 -0.17,-0.21 -0.22,-0.34 -0.05,-0.14 -0.03,-0.4 -0.03,-0.44 0.01,-0.03 0.02,-0.01 0,-0.04 -0.03,-0.03 -0.17,-0.11 -0.17,-0.11 0,0 0.01,0.05 0.01,0.21 -0.01,0.04 -0.02,0.08 -0.02,0.15 -0.01,0.06 0.03,0.13 0.12,0.31 0.11,0.2 0.16,0.32 0.22,0.42 z" inkscape:connector-curvature="0" style="fill:#e4e7eb;fill-rule:evenodd;stroke:none;stroke-width:0.28222001;stroke-linejoin:round;fill-opacity:1"/>
        <rect id="rect1160" height="1.88" width="1.03" y="82.60643" x="66.546478" class="BoundingBox" style="fill:none;fill-rule:evenodd;stroke:none;stroke-width:0.28222001;stroke-linejoin:round"/>
        <path id="path1162" d="m 67.566479,82.60643 c 0,0 -0.06,0.1 -0.09,0.12 -0.02,0.03 -0.39,0.34 -0.41,0.35 -0.02,0.01 -0.21,0.07 -0.39,0.52 -0.18,0.45 -0.1,0.87 -0.1,0.87 l 0.08,-0.01 0.02,-0.04 c 0,0 0.03,-0.15 0.05,-0.26 0.03,-0.12 0.07,-0.29 0.15,-0.41 0.09,-0.11 0.19,-0.25 0.19,-0.25 0,0 0.07,-0.14 0.08,-0.17 0.12,-0.19 0.11,-0.21 0.22,-0.33 0.11,-0.11 0.05,0.03 0.05,0.03 l -0.09,0.17 c 0,0 -0.09,0.17 -0.11,0.21 -0.03,0.04 -0.1,0.18 -0.22,0.33 -0.09,0.12 -0.19,0.43 -0.19,0.43 l -0.04,0.29 0.1,-0.02 c 0.15,-0.13 0.34,-0.4 0.47,-0.58 0.13,-0.18 0.19,-0.45 0.21,-0.57 0.03,-0.12 0.02,-0.68 0.02,-0.68 z" inkscape:connector-curvature="0" style="fill:#e4e7eb;fill-rule:evenodd;stroke:none;stroke-width:0.28222001;stroke-linejoin:round;fill-opacity:1"/>
        <rect id="rect1167" height="1.61" width="0.41999999" y="82.596428" x="66.146477" class="BoundingBox" style="fill:none;fill-rule:evenodd;stroke:none;stroke-width:0.28222001;stroke-linejoin:round"/>
        <path id="path1169" d="m 66.316479,82.70643 c -0.1,-0.09 -0.17,-0.11 -0.17,-0.11 0,0 0.02,0.16 0.02,0.26 0,0.1 0.01,0.27 0,0.36 0,0.09 -0.05,0.24 0.02,0.38 0.08,0.15 0.15,0.22 0.21,0.32 0.05,0.09 0.12,0.27 0.12,0.27 0,0 -0.02,-0.35 0.01,-0.53 0.03,-0.17 0.04,-0.44 0,-0.57 -0.04,-0.14 -0.11,-0.3 -0.21,-0.38 z" inkscape:connector-curvature="0" style="fill:#e4e7eb;fill-rule:evenodd;stroke:none;stroke-width:0.28222001;stroke-linejoin:round;fill-opacity:1"/>
        <rect id="rect1174" height="0.41999999" width="0.37" y="82.636429" x="66.736481" class="BoundingBox" style="fill:none;fill-rule:evenodd;stroke:none;stroke-width:0.28222001;stroke-linejoin:round"/>
        <path id="path1176" d="m 66.916479,82.63643 c -0.17,-0.01 -0.17,0.17 -0.17,0.17 0,0 0,-0.05 0,0.01 -0.01,0.06 0.03,0.21 0.15,0.22 0.14,0.01 0.19,-0.14 0.19,-0.22 0,-0.02 -0.01,-0.18 -0.17,-0.18 z" inkscape:connector-curvature="0" style="fill:#e4e7eb;fill-rule:evenodd;stroke:none;stroke-width:0.28222001;stroke-linejoin:round;fill-opacity:1"/>
        <rect id="rect1181" height="0.5" width="0.25" y="82.35643" x="66.926476" class="BoundingBox" style="fill:none;fill-rule:evenodd;stroke:none;stroke-width:0.28222001;stroke-linejoin:round"/>
        <path id="path1183" d="m 67.046479,82.60643 c 0.08,0.03 0.12,0.24 0.12,0.24 0,0 -0.01,-0.12 -0.01,-0.18 0,-0.06 -0.03,-0.3 -0.03,-0.3 l -0.08,0.06 c -0.07,0.06 -0.12,0.16 -0.12,0.16 0,0 0.05,0 0.12,0.02 z" inkscape:connector-curvature="0" style="fill:#e4e7eb;fill-rule:evenodd;stroke:none;stroke-width:0.28222001;stroke-linejoin:round;fill-opacity:1"/>
        <rect id="rect1188" height="1.65" width="0.33000001" y="81.016434" x="66.686478" class="BoundingBox" style="fill:none;fill-rule:evenodd;stroke:none;stroke-width:0.28222001;stroke-linejoin:round"/>
        <path id="path1190" d="m 66.736479,82.10643 c 0.03,-0.05 0.1,-0.16 0.13,-0.34 0.01,-0.07 0.02,-0.18 0.01,-0.26 0,-0.06 -0.02,-0.15 0,-0.15 0.03,-0.01 0.03,0.04 0.04,0.12 0.01,0.03 0.02,0.1 0.01,0.2 0,0.08 0,0.14 -0.03,0.26 -0.04,0.09 -0.07,0.19 -0.09,0.22 -0.02,0.03 -0.08,0.14 -0.08,0.14 0,0 -0.04,0.1 -0.02,0.18 0,0.08 0,0.18 0,0.18 0,0 0.04,-0.08 0.14,-0.09 0,0 0.02,-0.14 0.02,-0.19 0,-0.04 0.06,-0.33 0.09,-0.42 0.05,-0.15 0.08,-0.37 0,-0.64 -0.01,-0.07 -0.03,-0.3 -0.03,-0.3 0,0 -0.09,0.07 -0.14,0.33 -0.01,0.08 0.02,0.29 0.01,0.51 -0.01,0.13 -0.04,0.22 -0.06,0.25 z" inkscape:connector-curvature="0" style="fill:#e4e7eb;fill-rule:evenodd;stroke:none;stroke-width:0.28222001;stroke-linejoin:round;fill-opacity:1"/>
        <rect id="rect1195" height="0.02" width="0.0099999998" y="82.096428" x="66.736481" class="BoundingBox" style="fill:none;fill-rule:evenodd;stroke:none;stroke-width:0.28222001;stroke-linejoin:round"/>
        <path id="path1197" d="m 66.736479,82.09643 c 0,0.01 0,0.01 0,0.01 z" inkscape:connector-curvature="0" style="fill:#1d254b;fill-rule:evenodd;stroke:none;stroke-width:0.28222001;stroke-linejoin:round"/>
        <rect id="rect1202" height="3.05" width="1.54" y="80.396431" x="65.336479" class="BoundingBox" style="fill:none;fill-rule:evenodd;stroke:none;stroke-width:0.28222001;stroke-linejoin:round"/>
        <path id="path1204" d="m 66.336479,80.93643 c 0,-0.03 0.01,-0.13 0.06,-0.13 0.04,0 0.04,0.05 0.03,0.09 0,0.04 0,0.11 0,0.13 0,0.01 0.02,0.12 0.03,0.17 0.02,0.06 0.05,0.08 0.04,0.19 -0.01,0.07 -0.09,0.16 -0.06,0.28 0.01,0.06 0.06,0.13 0.08,0.18 0.03,0.04 0.07,0.14 0.08,0.22 0,0.07 -0.01,0.12 -0.01,0.12 0,0 -0.06,0.09 -0.08,-0.03 -0.02,-0.13 -0.02,-0.19 -0.05,-0.26 -0.04,-0.1 -0.17,-0.29 -0.1,-0.43 0.02,-0.02 0.06,-0.06 0.06,-0.12 0,-0.06 -0.07,-0.18 -0.07,-0.25 -0.01,-0.05 -0.01,-0.12 -0.01,-0.16 z m -0.17,0.55 c 0.01,0.08 0.03,0.12 0.12,0.29 0.03,0.05 0.1,0.19 0.11,0.24 0.01,0.04 0.02,0.1 0.02,0.11 0,0.02 0.01,0.12 0.01,0.12 v 0.04 c 0,0 -0.25,-0.14 -0.36,-0.21 -0.11,-0.08 -0.24,-0.18 -0.32,-0.24 -0.09,-0.07 -0.3,-0.32 -0.31,-0.51 l -0.09,-0.09 c 0,0 -0.08,0.44 0.28,0.72 0.1,0.08 0.21,0.17 0.45,0.27 0.24,0.1 0.28,0.23 0.39,0.43 0.1,0.22 0.13,0.31 0.14,0.37 0.01,0.06 0.04,0.33 0.04,0.33 l 0.01,0.08 c 0,0 0.11,-0.22 0.21,-0.31 0,0 -0.2,-0.03 -0.19,-0.35 l -0.03,-0.21 c 0,0 -0.05,-0.25 0.03,-0.4 0,0 0.1,-0.28 0.06,-0.53 -0.02,-0.14 -0.02,-0.19 -0.04,-0.33 -0.03,-0.21 -0.12,-0.53 -0.13,-0.56 -0.04,-0.11 -0.05,-0.13 -0.09,-0.22 -0.01,-0.03 -0.03,-0.13 -0.06,-0.13 -0.02,0 -0.05,0.13 -0.05,0.13 0,0 -0.05,0.14 -0.06,0.18 -0.03,0.12 -0.09,0.21 -0.12,0.47 -0.01,0.05 -0.01,0.18 -0.02,0.19 0,0.02 -0.01,0.09 0,0.12 z" inkscape:connector-curvature="0" style="fill:#e4e7eb;fill-rule:evenodd;stroke:none;stroke-width:0.28222001;stroke-linejoin:round;fill-opacity:1"/>
        <rect id="rect1209" height="0.94" width="1.25" y="81.656433" x="65.116478" class="BoundingBox" style="fill:none;fill-rule:evenodd;stroke:none;stroke-width:0.28222001;stroke-linejoin:round"/>
        <path id="path1211" d="m 66.356479,82.58643 c 0,0 -0.03,-0.07 -0.07,-0.11 -0.08,-0.09 -0.18,-0.16 -0.47,-0.29 -0.29,-0.15 -0.36,-0.37 -0.51,-0.46 -0.06,-0.04 -0.19,-0.07 -0.19,-0.07 0,0 0.12,0.17 0.16,0.23 0.03,0.07 0.04,0.12 0.2,0.26 0.16,0.15 0.35,0.2 0.47,0.23 0.17,0.06 0.41,0.21 0.41,0.21 z" inkscape:connector-curvature="0" style="fill:#e4e7eb;fill-rule:evenodd;stroke:none;stroke-width:0.28222001;stroke-linejoin:round;fill-opacity:1"/>
        <rect id="rect1216" height="0.83999997" width="0.87" y="81.35643" x="65.506477" class="BoundingBox" style="fill:none;fill-rule:evenodd;stroke:none;stroke-width:0.28222001;stroke-linejoin:round"/>
        <path id="path1218" d="m 65.506479,81.36643 c 0.01,0.03 0.07,0.15 0.23,0.34 0.24,0.29 0.62,0.47 0.62,0.47 -0.04,-0.18 -0.08,-0.32 -0.14,-0.41 -0.22,-0.33 -0.71,-0.41 -0.71,-0.41 0,0 -0.01,-0.01 0,0.01 z" inkscape:connector-curvature="0" style="fill:#e4e7eb;fill-rule:evenodd;stroke:none;stroke-width:0.28222001;stroke-linejoin:round;fill-opacity:1"/>
        <rect id="rect1223" height="0.85000002" width="0.56" y="80.60643" x="65.62648" class="BoundingBox" style="fill:none;fill-rule:evenodd;stroke:none;stroke-width:0.28222001;stroke-linejoin:round"/>
        <path id="path1225" d="m 66.116479,81.43643 v -0.19 l -0.03,-0.03 -0.17,-0.2 c 0,0 -0.06,-0.05 -0.13,-0.17 -0.03,-0.04 -0.05,-0.07 -0.03,-0.09 0.04,-0.03 0.09,0.05 0.13,0.1 0.06,0.08 0.23,0.3 0.23,0.3 l 0.06,-0.24 -0.43,-0.31 c -0.01,0.05 -0.1,0.08 -0.1,0.08 -0.07,0.36 0.47,0.75 0.47,0.75 z" inkscape:connector-curvature="0" style="fill:#e4e7eb;fill-rule:evenodd;stroke:none;stroke-width:0.28222001;stroke-linejoin:round;fill-opacity:1"/>
        <rect id="rect1230" height="0.82999998" width="0.87" y="80.706429" x="65.266479" class="BoundingBox" style="fill:none;fill-rule:evenodd;stroke:none;stroke-width:0.28222001;stroke-linejoin:round"/>
        <path id="path1232" d="m 65.406479,80.89643 c -0.11,0.05 -0.14,0.05 -0.14,0.05 v 0.09 l 0.03,0.04 c 0,0 0.14,0.19 0.22,0.21 0.03,0.01 0.16,0.04 0.29,0.09 0.16,0.06 0.32,0.15 0.32,0.15 0,0 -0.45,-0.24 -0.54,-0.63 l -0.04,-0.17 -0.08,-0.02 c 0,0 0.04,0.15 -0.06,0.19 z" inkscape:connector-curvature="0" style="fill:#e4e7eb;fill-rule:evenodd;stroke:none;stroke-width:0.28222001;stroke-linejoin:round;fill-opacity:1"/>
        <rect id="rect1237" height="0.56" width="1.23" y="80.416428" x="63.666477" class="BoundingBox" style="fill:none;fill-rule:evenodd;stroke:none;stroke-width:0.28222001;stroke-linejoin:round"/>
        <path id="path1239" d="m 63.756479,80.53643 c 0.05,0.05 0.13,0.12 0.23,0.18 0.09,0.05 0.36,0.2 0.57,0.24 0.04,0.01 0.19,0 0.19,0 0.01,-0.11 0.13,-0.12 0.13,-0.12 h -0.25 c -0.1,0 -0.33,-0.06 -0.44,-0.1 -0.07,-0.03 -0.23,-0.14 -0.28,-0.16 -0.05,-0.03 -0.05,-0.1 0.03,-0.07 0.06,0.02 0.2,0.11 0.34,0.18 0.15,0.06 0.31,0.09 0.38,0.09 0.01,-0.02 -0.22,-0.05 -0.34,-0.13 -0.13,-0.09 -0.25,-0.22 -0.25,-0.22 l -0.32,-0.01 c 0,0 -0.17,-0.01 0.01,0.12 z" inkscape:connector-curvature="0" style="fill:#e4e7eb;fill-rule:evenodd;stroke:none;stroke-width:0.28222001;stroke-linejoin:round;fill-opacity:1"/>
        <rect id="rect1244" height="0.30000001" width="0.37" y="80.866432" x="64.856476" class="BoundingBox" style="fill:none;fill-rule:evenodd;stroke:none;stroke-width:0.28222001;stroke-linejoin:round"/>
        <path id="path1246" d="m 65.066479,81.14643 c 0.07,0 0.12,-0.01 0.14,-0.09 0.01,-0.08 -0.02,-0.14 -0.13,-0.16 -0.07,-0.03 -0.17,-0.03 -0.21,0.08 -0.05,0.1 0.12,0.17 0.12,0.17 0,0 0.03,0.02 0.08,0 z" inkscape:connector-curvature="0" style="fill:#e4e7eb;fill-rule:evenodd;stroke:none;stroke-width:0.28222001;stroke-linejoin:round;fill-opacity:1"/>
        <rect id="rect1251" height="0.33000001" width="0.34" y="80.53643" x="65.066483" class="BoundingBox" style="fill:none;fill-rule:evenodd;stroke:none;stroke-width:0.28222001;stroke-linejoin:round"/>
        <path id="path1253" d="m 65.186479,80.53643 c -0.1,0 -0.13,0.07 -0.11,0.22 0.02,0.15 0.26,0.08 0.26,0.08 l 0.04,-0.02 c 0,0 0.03,-0.02 0.02,-0.14 -0.02,-0.12 -0.11,-0.14 -0.21,-0.14 z" inkscape:connector-curvature="0" style="fill:#e4e7eb;fill-rule:evenodd;stroke:none;stroke-width:0.28222001;stroke-linejoin:round;fill-opacity:1"/>
        <rect id="rect1258" height="0.0099999998" width="0.02" y="80.636429" x="65.546478" class="BoundingBox" style="fill:none;fill-rule:evenodd;stroke:none;stroke-width:0.28222001;stroke-linejoin:round"/>
        <rect id="rect1263" height="0.36000001" width="0.31999999" y="80.306427" x="65.386482" class="BoundingBox" style="fill:none;fill-rule:evenodd;stroke:none;stroke-width:0.28222001;stroke-linejoin:round"/>
        <path id="path1265" d="m 65.556479,80.65643 c 0.01,0 0.01,0 0.04,-0.01 0.05,-0.01 0.09,-0.13 0.09,-0.13 0.03,-0.15 -0.08,-0.19 -0.08,-0.19 -0.2,-0.04 -0.21,0.12 -0.21,0.12 -0.05,0.22 0.13,0.21 0.16,0.21 z" inkscape:connector-curvature="0" style="fill:#e4e7eb;fill-rule:evenodd;stroke:none;stroke-width:0.28222001;stroke-linejoin:round;fill-opacity:1"/>
        <rect id="rect1270" height="1.03" width="0.87" y="79.486427" x="64.516479" class="BoundingBox" style="fill:none;fill-rule:evenodd;stroke:none;stroke-width:0.28222001;stroke-linejoin:round"/>
        <path id="path1272" d="m 64.716479,79.94643 c 0.01,0.07 0.11,0.17 0.14,0.18 0.02,0.02 0.15,0.15 0.19,0.21 0.04,0.05 0.14,0.14 0.14,0.14 0,0 0.02,0 0.03,-0.02 0.03,-0.04 -0.04,-0.19 -0.06,-0.21 -0.01,-0.02 -0.08,-0.13 -0.08,-0.13 0,0 -0.09,-0.1 -0.11,-0.11 -0.01,-0.01 -0.08,-0.08 -0.15,-0.16 -0.07,-0.09 0.05,-0.07 0.07,-0.06 0.04,0.02 0.11,0.1 0.13,0.14 0.04,0.05 0.06,0.09 0.14,0.19 0.08,0.1 0.08,0.13 0.12,0.28 0.04,0.15 0.07,0.09 0.07,0.09 0,0 0.03,-0.04 0.02,-0.16 -0.04,-0.34 -0.13,-0.44 -0.16,-0.49 -0.06,-0.1 -0.19,-0.19 -0.28,-0.22 -0.11,-0.03 -0.22,-0.08 -0.34,-0.11 -0.12,-0.04 -0.03,0.07 0.02,0.16 0.06,0.11 0.1,0.21 0.11,0.28 z" inkscape:connector-curvature="0" style="fill:#e4e7eb;fill-rule:evenodd;stroke:none;stroke-width:0.28222001;stroke-linejoin:round;fill-opacity:1"/>
        <rect id="rect1277" height="0.95999998" width="1.25" y="79.78643" x="63.866478" class="BoundingBox" style="fill:none;fill-rule:evenodd;stroke:none;stroke-width:0.28222001;stroke-linejoin:round"/>
        <path id="path1279" d="m 64.256479,80.50643 c 0.12,0.1 0.18,0.16 0.44,0.2 0.25,0.04 0.28,0.02 0.28,0.02 0,0 0.08,-0.01 0.01,-0.07 -0.06,-0.05 -0.2,-0.09 -0.24,-0.1 -0.05,-0.02 -0.14,-0.04 -0.22,-0.09 -0.05,-0.03 -0.15,-0.09 -0.24,-0.16 -0.07,-0.06 -0.17,-0.13 -0.18,-0.21 -0.02,-0.07 0.01,-0.05 0.01,-0.05 0,0 0.03,-0.03 0.16,0.11 0.08,0.07 0.13,0.11 0.18,0.14 0.13,0.09 0.19,0.12 0.34,0.19 0.07,0.04 0.25,0.08 0.25,0.08 0,0 0.03,-0.06 0.05,-0.06 0.02,-0.01 -0.07,-0.1 -0.23,-0.22 -0.14,-0.11 -0.24,-0.25 -0.24,-0.25 0,0 -0.13,-0.03 -0.33,-0.06 -0.15,-0.02 -0.44,-0.23 -0.43,-0.18 0,0.06 0.04,0.24 0.12,0.37 0.07,0.12 0.15,0.24 0.27,0.34 z" inkscape:connector-curvature="0" style="fill:#e4e7eb;fill-rule:evenodd;stroke:none;stroke-width:0.28222001;stroke-linejoin:round;fill-opacity:1"/>
        <rect id="rect1284" height="8.3100004" width="5.46" y="79.666428" x="57.766479" class="BoundingBox" style="fill:none;fill-rule:evenodd;stroke:none;stroke-width:0.28222001;stroke-linejoin:round"/>
        <path id="path1286" d="m 63.146479,87.80643 c 0,0 -0.3,-0.08 -0.57,-0.2 -0.36,-0.17 -0.78,-0.4 -1.09,-0.82 -0.38,-0.52 -0.7,-0.81 -0.78,-0.86 -0.08,-0.06 -0.09,-0.08 -0.12,-0.04 -0.03,0.04 -0.01,0.06 0.01,0.1 0.08,0.12 0.27,0.34 0.34,0.46 0.11,0.22 0.35,0.45 0.35,0.59 0,0.02 -0.07,-0.01 -0.07,-0.01 0,0 -0.56,-0.18 -0.79,-0.84 -0.17,-0.47 -0.1,-0.61 -0.14,-0.85 -0.06,-0.42 -0.08,-0.45 -0.29,-0.92 -0.01,-0.02 -0.14,-0.21 -0.15,-0.17 -0.03,0.06 0.02,0.27 0.02,0.27 l 0.02,0.24 c 0,0 -0.02,0.54 -0.02,0.57 0,0.04 -0.14,0.37 0.46,0.94 0,0 0.01,0.1 -0.07,0.01 -0.05,-0.06 -0.49,-0.38 -0.62,-0.9 -0.13,-0.52 -0.16,-1.04 -0.05,-1.26 0.09,-0.21 0.28,-0.69 0.2,-1.1 -0.01,-0.05 -0.02,-0.18 -0.05,-0.14 -0.02,0.01 -0.07,0.23 -0.1,0.3 -0.05,0.1 -0.12,0.2 -0.14,0.27 -0.04,0.11 -0.25,0.3 -0.21,0.64 0.04,0.38 0.07,0.44 0.12,0.58 0.02,0.05 0.06,0.18 0.03,0.19 -0.02,0.01 -0.11,-0.15 -0.11,-0.15 0,0 -0.38,-0.73 -0.15,-1.31 0.24,-0.58 0.84,-1.13 0.84,-1.13 0,0 0.49,-0.39 0.59,-0.47 0.04,-0.04 0.03,-0.07 0.01,-0.06 -0.12,0.03 -1.05,0.21 -1.38,1.28 0,0 -0.02,0.04 -0.04,0.03 -0.03,-0.01 0,-0.06 0,-0.06 0,0 0.2,-0.76 0.78,-1.1 0.63,-0.38 0.56,-0.32 0.77,-0.44 0.13,-0.08 0.24,-0.18 0.39,-0.41 0.02,-0.03 0.07,-0.16 0.07,-0.19 -0.01,-0.02 -0.04,0.01 -0.05,0.05 0,0 -0.18,0.26 -0.45,0.35 -0.26,0.09 -0.48,-0.04 -0.75,0.25 -0.27,0.29 -0.49,0.68 -0.49,0.68 0,0 -0.07,0.1 -0.08,0.1 -0.03,-0.01 0.01,-0.11 0.01,-0.11 0,0 0.36,-0.73 0.65,-0.88 0.29,-0.15 0.55,-0.29 0.71,-0.41 0.2,-0.15 0.55,-0.52 0.67,-0.64 0.03,-0.03 0.22,-0.21 0.26,-0.27 0.03,-0.03 0.09,-0.07 0.08,-0.08 -0.03,-0.02 -0.2,0.06 -0.2,0.06 0,0 -0.87,0.3 -1.47,1.16 -0.02,0.03 -0.11,0.09 -0.14,0.13 -0.06,0.06 -0.24,0.26 -0.24,0.26 -0.04,-0.03 0.4,-0.6 0.4,-0.6 l 0.07,-0.29 c 0,0 0.11,-0.43 0.34,-0.74 0.03,-0.03 0.16,-0.16 0.19,-0.19 0.04,-0.04 -0.09,0.05 -0.07,0.03 0,0 -0.89,0.61 -0.89,1.37 0,0.14 -0.09,0.27 -0.21,0.44 -0.15,0.2 -0.19,0.32 -0.26,0.62 -0.04,0.21 -0.08,0.37 -0.08,0.37 0,0 0.01,0.11 -0.03,0.1 -0.04,-0.01 -0.02,-0.1 -0.02,-0.1 0,0 0.09,-0.57 0.15,-0.75 0.06,-0.17 0.11,-0.28 0.11,-0.28 0,0 -0.04,-0.43 0.06,-0.67 0.08,-0.2 0.3,-0.48 0.33,-0.54 0.02,-0.03 0.12,-0.23 0.14,-0.45 0.01,-0.03 -0.02,0 -0.06,0.08 -0.09,0.22 -0.18,0.27 -0.34,0.47 0,0 -0.41,0.28 -0.56,1.13 0,0 0,0.32 -0.05,0.81 -0.04,0.37 -0.01,0.71 0.03,0.91 0.03,0.13 0.08,0.13 0.05,0.14 -0.02,0.01 -0.03,0.02 -0.08,-0.07 -0.05,-0.12 -0.1,-0.31 -0.1,-0.55 0,-0.44 0.04,-0.8 0.04,-0.8 0,0 0.08,-0.71 -0.23,-1.03 -0.02,-0.02 0.05,0.14 0.08,0.3 0.04,0.2 -0.03,0.48 -0.05,0.59 -0.02,0.1 -0.23,0.58 -0.15,1.02 0,0 0.17,0.75 0.4,1.12 0,0 0.07,0.18 -0.05,0.02 -0.13,-0.14 -0.31,-0.75 -0.33,-0.8 -0.02,-0.04 -0.2,-0.41 -0.37,-0.56 -0.09,-0.07 -0.33,-0.21 -0.33,-0.21 0,0 -0.14,-0.1 -0.04,0.03 0.08,0.1 0.19,0.28 0.24,0.36 0.13,0.19 0.22,0.38 0.28,0.5 0.08,0.17 0.27,0.67 0.27,0.67 l 0.11,0.31 c 0,0 0.21,0.13 0.32,0.24 0.09,0.1 0.28,0.32 0.43,0.7 0.07,0.17 0.14,0.29 0.14,0.29 0,0 0,0.17 -0.13,-0.04 -0.12,-0.21 -0.22,-0.58 -0.51,-0.89 -0.22,-0.23 -0.81,-0.55 -0.81,-0.55 0,0 0.39,0.65 0.49,0.76 0.16,0.19 0.4,0.44 0.46,0.51 0.06,0.07 0.42,0.5 0.48,0.57 0.08,0.11 0.14,0.16 0.18,0.2 0.1,0.1 0.41,0.23 0.43,0.35 0,0.03 -0.06,-0.01 -0.08,-0.02 -0.13,-0.07 -0.24,-0.15 -0.4,-0.25 -0.15,-0.1 -0.64,-0.12 -1.15,-0.95 -0.09,-0.15 -0.14,-0.21 -0.17,-0.2 -0.05,0.03 0.27,1.04 0.93,1.37 0,0 0.73,0.3 0.89,0.4 0.09,0.05 0.27,0.12 0.35,0.19 0.05,0.03 -0.04,0.03 -0.05,0.03 -0.39,-0.03 -0.94,-0.08 -1.28,-0.27 0,0 -0.15,-0.09 -0.03,0.04 0.1,0.11 0.28,0.37 0.63,0.52 0.35,0.15 0.86,0.24 1.05,0.25 0.18,0 0.84,0.01 0.97,0.05 0.12,0.04 0.36,0.09 0.48,0.13 0.1,0.03 0.43,0.15 0.43,0.15 0,0 0.1,0.05 0.15,0.07 0.06,0.03 0.29,0.09 0.31,0.04 0.01,-0.03 -0.07,-0.14 -0.07,-0.14 z" inkscape:connector-curvature="0" style="fill:#e4e7eb;fill-rule:evenodd;stroke:none;stroke-width:0.28222001;stroke-linejoin:round;fill-opacity:1"/>
        <rect id="rect1291" height="0.55000001" width="1.59" y="87.756432" x="61.266479" class="BoundingBox" style="fill:none;fill-rule:evenodd;stroke:none;stroke-width:0.28222001;stroke-linejoin:round"/>
        <path id="path1293" d="m 62.526479,87.76643 c -0.11,0.03 -1.03,0.36 -1.03,0.36 l -0.23,0.09 c 0.33,-0.07 0.57,0.08 0.57,0.08 l 1.01,-0.43 c 0,0 0,-0.02 -0.02,-0.03 -0.03,-0.02 -0.18,-0.1 -0.3,-0.07 z" inkscape:connector-curvature="0" style="fill:#e4e7eb;fill-rule:evenodd;stroke:none;stroke-width:0.28222001;stroke-linejoin:round;fill-opacity:1"/>
        <rect id="rect1298" height="0.19" width="0.61000001" y="88.166428" x="61.246479" class="BoundingBox" style="fill:none;fill-rule:evenodd;stroke:none;stroke-width:0.28222001;stroke-linejoin:round"/>
        <path id="path1300" d="m 61.266479,88.19643 c -0.01,0.01 -0.02,0.03 0,0.04 0.05,0.02 0.02,0.03 0.22,0.08 0.19,0.05 0.32,0.02 0.35,-0.03 0.06,-0.04 -0.46,-0.18 -0.57,-0.09 z" inkscape:connector-curvature="0" style="fill:#e4e7eb;fill-rule:evenodd;stroke:none;stroke-width:0.28222001;stroke-linejoin:round;fill-opacity:1"/>
        <rect id="rect1305" height="1.3" width="0.20999999" y="84.17643" x="59.60648" class="BoundingBox" style="fill:none;fill-rule:evenodd;stroke:none;stroke-width:0.28222001;stroke-linejoin:round"/>
        <path id="path1307" d="m 59.756479,85.46643 0.02,-0.27 0.02,-0.22 c 0,0 0.01,-0.58 -0.04,-0.7 -0.01,-0.03 -0.04,-0.1 -0.07,-0.1 -0.07,0 -0.07,0.2 -0.08,0.37 -0.01,0.29 0.15,0.92 0.15,0.92 z" inkscape:connector-curvature="0" style="fill:#e4e7eb;fill-rule:evenodd;stroke:none;stroke-width:0.28222001;stroke-linejoin:round;fill-opacity:1"/>
        <rect id="rect1312" height="0.20999999" width="0.68000001" y="88.186432" x="63.836479" class="BoundingBox" style="fill:none;fill-rule:evenodd;stroke:none;stroke-width:0.28222001;stroke-linejoin:round"/>
        <path id="path1314" d="m 63.896479,88.35643 c 0,0 -0.1,-0.01 -0.04,-0.07 0.06,-0.05 0.23,-0.1 0.27,-0.1 0.03,0 0.13,0 0.22,0.01 0.07,0.02 0.18,0.07 0.15,0.1 -0.03,0.04 -0.13,0.08 -0.28,0.09 -0.12,0 -0.18,0 -0.23,-0.01 -0.05,-0.01 -0.09,-0.02 -0.09,-0.02 z" inkscape:connector-curvature="0" style="fill:#e4e7eb;fill-rule:evenodd;stroke:none;stroke-width:0.28222001;stroke-linejoin:round;fill-opacity:1"/>
        <rect id="rect1319" height="1.54" width="1.4" y="86.376427" x="56.486481" class="BoundingBox" style="fill:none;fill-rule:evenodd;stroke:none;stroke-width:0.28222001;stroke-linejoin:round"/>
        <path id="path1321" d="m 57.116479,87.37643 -0.09,-0.13 c -0.01,-0.01 -0.03,-0.03 -0.06,-0.07 -0.01,-0.02 -0.04,-0.02 -0.06,-0.03 -0.02,0 -0.04,0 -0.07,0.02 -0.03,0.02 -0.05,0.04 -0.05,0.07 -0.01,0.03 0.01,0.07 0.04,0.13 l 0.08,0.13 z m 0.75,-0.04 -0.98,0.57 -0.29,-0.49 c -0.06,-0.1 -0.09,-0.17 -0.1,-0.23 -0.02,-0.06 -0.01,-0.11 0.01,-0.17 0.03,-0.06 0.07,-0.1 0.13,-0.14 0.06,-0.03 0.11,-0.05 0.16,-0.05 0.05,0 0.1,0.02 0.15,0.04 0.03,0.02 0.07,0.04 0.1,0.08 -0.01,-0.04 -0.01,-0.07 -0.01,-0.1 0,-0.01 0.01,-0.04 0.02,-0.08 0.03,-0.04 0.04,-0.07 0.05,-0.08 l 0.19,-0.31 0.2,0.34 -0.2,0.34 c -0.02,0.04 -0.04,0.08 -0.04,0.1 0,0.03 0.01,0.06 0.02,0.08 l 0.02,0.03 0.39,-0.23 z" inkscape:connector-curvature="0" style="fill:#e4e7eb;fill-rule:evenodd;stroke:none;stroke-width:0.28222001;stroke-linejoin:round;fill-opacity:1"/>
        <rect id="rect1326" height="1.28" width="1.38" y="85.276428" x="55.85648" class="BoundingBox" style="fill:none;fill-rule:evenodd;stroke:none;stroke-width:0.28222001;stroke-linejoin:round"/>
        <path id="path1328" d="m 56.146479,86.54643 -0.29,-0.88 0.23,-0.08 0.18,0.55 0.17,-0.05 -0.17,-0.52 0.22,-0.07 0.17,0.51 0.22,-0.07 -0.2,-0.58 0.25,-0.08 0.3,0.91 z" inkscape:connector-curvature="0" style="fill:#e4e7eb;fill-rule:evenodd;stroke:none;stroke-width:0.28222001;stroke-linejoin:round;fill-opacity:1"/>
        <rect id="rect1333" height="1.01" width="1.23" y="84.146431" x="55.666477" class="BoundingBox" style="fill:none;fill-rule:evenodd;stroke:none;stroke-width:0.28222001;stroke-linejoin:round"/>
        <path id="path1335" d="m 56.186479,84.73643 -0.02,-0.08 c 0,-0.07 -0.02,-0.11 -0.05,-0.14 -0.02,-0.02 -0.05,-0.03 -0.09,-0.03 -0.04,0.01 -0.06,0.02 -0.08,0.05 -0.03,0.02 -0.03,0.07 -0.03,0.13 l 0.01,0.11 z m -0.44,0.41 -0.07,-0.58 c -0.01,-0.12 0,-0.22 0.06,-0.29 0.05,-0.07 0.13,-0.11 0.24,-0.12 0.11,-0.02 0.21,0.01 0.28,0.07 0.07,0.06 0.12,0.16 0.14,0.3 l 0.02,0.19 0.41,-0.05 0.05,0.36 z" inkscape:connector-curvature="0" style="fill:#e4e7eb;fill-rule:evenodd;stroke:none;stroke-width:0.28222001;stroke-linejoin:round;fill-opacity:1"/>
        <rect id="rect1340" height="1.17" width="1.24" y="82.60643" x="55.616478" class="BoundingBox" style="fill:none;fill-rule:evenodd;stroke:none;stroke-width:0.28222001;stroke-linejoin:round"/>
        <path id="path1342" d="m 55.716479,82.94643 0.04,-0.34 0.66,0.07 c 0.07,0.01 0.13,0.02 0.19,0.05 0.06,0.03 0.1,0.06 0.14,0.11 0.04,0.05 0.07,0.1 0.08,0.15 0.02,0.07 0.02,0.16 0.01,0.26 0,0.05 -0.02,0.11 -0.03,0.17 -0.02,0.07 -0.04,0.12 -0.06,0.16 -0.03,0.04 -0.07,0.08 -0.11,0.11 -0.05,0.03 -0.09,0.05 -0.14,0.06 -0.07,0.01 -0.14,0.02 -0.19,0.01 l -0.68,-0.07 0.05,-0.35 0.68,0.08 c 0.06,0 0.11,-0.01 0.15,-0.04 0.04,-0.03 0.06,-0.07 0.07,-0.13 0,-0.06 -0.01,-0.11 -0.04,-0.16 -0.03,-0.04 -0.08,-0.06 -0.14,-0.06 z" inkscape:connector-curvature="0" style="fill:#e4e7eb;fill-rule:evenodd;stroke:none;stroke-width:0.28222001;stroke-linejoin:round;fill-opacity:1"/>
        <rect id="rect1347" height="1.26" width="1.34" y="81.186432" x="55.87648" class="BoundingBox" style="fill:none;fill-rule:evenodd;stroke:none;stroke-width:0.28222001;stroke-linejoin:round"/>
        <path id="path1349" d="m 56.826479,82.01643 0.06,-0.18 c 0.02,-0.06 0.02,-0.1 0.01,-0.13 -0.01,-0.03 -0.03,-0.05 -0.07,-0.06 -0.03,-0.02 -0.06,-0.01 -0.09,0 -0.02,0.02 -0.05,0.06 -0.07,0.11 l -0.06,0.18 z m -0.42,-0.16 0.05,-0.14 c 0.02,-0.05 0.02,-0.09 0.01,-0.12 -0.01,-0.03 -0.03,-0.05 -0.06,-0.06 -0.03,-0.01 -0.06,0 -0.09,0.01 -0.02,0.01 -0.04,0.04 -0.06,0.09 l -0.05,0.15 z m -0.53,0.19 0.21,-0.62 c 0.04,-0.1 0.09,-0.17 0.16,-0.21 0.07,-0.03 0.15,-0.04 0.22,-0.02 0.06,0.03 0.11,0.07 0.14,0.12 0.02,0.04 0.03,0.08 0.03,0.14 0.05,-0.07 0.1,-0.12 0.15,-0.14 0.06,-0.02 0.13,-0.01 0.19,0.01 0.07,0.02 0.11,0.05 0.15,0.09 0.03,0.04 0.06,0.09 0.07,0.14 0,0.03 0,0.08 -0.01,0.14 -0.02,0.08 -0.03,0.13 -0.04,0.15 l -0.21,0.58 z" inkscape:connector-curvature="0" style="fill:#e4e7eb;fill-rule:evenodd;stroke:none;stroke-width:0.28222001;stroke-linejoin:round;fill-opacity:1"/>
        <rect id="rect1354" height="0.93000001" width="1.45" y="80.276428" x="56.44648" class="BoundingBox" style="fill:none;fill-rule:evenodd;stroke:none;stroke-width:0.28222001;stroke-linejoin:round"/>
        <path id="path1356" d="m 56.446479,80.60643 0.19,-0.3 0.73,0.45 0.28,-0.48 0.24,0.15 -0.46,0.77 z" inkscape:connector-curvature="0" style="fill:#e4e7eb;fill-rule:evenodd;stroke:none;stroke-width:0.28222001;stroke-linejoin:round;fill-opacity:1"/>
        <rect id="rect1361" height="1.01" width="1.1" y="79.226433" x="57.19648" class="BoundingBox" style="fill:none;fill-rule:evenodd;stroke:none;stroke-width:0.28222001;stroke-linejoin:round"/>
        <path id="path1363" d="m 57.196479,79.49643 0.22,-0.27 0.87,0.74 -0.23,0.26 z" inkscape:connector-curvature="0" style="fill:#e4e7eb;fill-rule:evenodd;stroke:none;stroke-width:0.28222001;stroke-linejoin:round;fill-opacity:1"/>
        <rect id="rect1368" height="1.22" width="1.22" y="78.35643" x="57.916477" class="BoundingBox" style="fill:none;fill-rule:evenodd;stroke:none;stroke-width:0.28222001;stroke-linejoin:round"/>
        <path id="path1370" d="m 58.756479,78.88643 0.3,-0.12 c 0.04,0.08 0.06,0.15 0.06,0.22 0.01,0.08 -0.01,0.15 -0.04,0.21 -0.03,0.06 -0.08,0.13 -0.17,0.19 -0.1,0.08 -0.18,0.13 -0.27,0.16 -0.08,0.02 -0.17,0.02 -0.27,-0.01 -0.1,-0.05 -0.19,-0.12 -0.29,-0.22 -0.11,-0.15 -0.17,-0.29 -0.16,-0.43 0.02,-0.14 0.09,-0.27 0.23,-0.38 0.11,-0.09 0.21,-0.14 0.31,-0.15 0.1,-0.01 0.21,0.02 0.31,0.09 l -0.19,0.25 c -0.03,-0.02 -0.06,-0.03 -0.08,-0.04 -0.03,-0.01 -0.06,-0.01 -0.09,0 -0.03,0.01 -0.06,0.02 -0.09,0.04 -0.06,0.05 -0.08,0.12 -0.08,0.19 0.01,0.06 0.05,0.12 0.11,0.2 0.08,0.1 0.15,0.15 0.21,0.16 0.06,0.02 0.11,0 0.17,-0.05 0.05,-0.04 0.07,-0.08 0.08,-0.13 0,-0.06 -0.02,-0.11 -0.05,-0.18 z" inkscape:connector-curvature="0" style="fill:#e4e7eb;fill-rule:evenodd;stroke:none;stroke-width:0.28222001;stroke-linejoin:round;fill-opacity:1"/>
        <rect id="rect1375" height="1.38" width="1.25" y="77.566429" x="59.30648" class="BoundingBox" style="fill:none;fill-rule:evenodd;stroke:none;stroke-width:0.28222001;stroke-linejoin:round"/>
        <path id="path1377" d="m 59.906479,78.21643 -0.31,-0.3 0.08,0.41 z m 0.17,0.18 -0.36,0.19 0.04,0.19 -0.32,0.16 -0.13,-1.2 0.34,-0.17 0.89,0.81 -0.32,0.17 z" inkscape:connector-curvature="0" style="fill:#e4e7eb;fill-rule:evenodd;stroke:none;stroke-width:0.28222001;stroke-linejoin:round;fill-opacity:1"/>
        <rect id="rect1382" height="1.23" width="1.14" y="76.936432" x="61.066479" class="BoundingBox" style="fill:none;fill-rule:evenodd;stroke:none;stroke-width:0.28222001;stroke-linejoin:round"/>
        <path id="path1384" d="m 61.456479,77.24643 0.08,0.61 0.09,-0.01 c 0.07,-0.01 0.12,-0.03 0.15,-0.05 0.03,-0.02 0.05,-0.05 0.06,-0.09 0.01,-0.05 0.01,-0.11 0,-0.2 -0.02,-0.12 -0.05,-0.2 -0.1,-0.23 -0.04,-0.04 -0.11,-0.05 -0.2,-0.04 z m -0.39,-0.21 0.52,-0.08 c 0.1,-0.01 0.18,-0.01 0.25,0.01 0.06,0.02 0.12,0.05 0.17,0.1 0.05,0.04 0.08,0.11 0.11,0.17 0.03,0.07 0.05,0.14 0.06,0.21 0.02,0.12 0.02,0.22 0,0.29 -0.02,0.07 -0.05,0.13 -0.09,0.18 -0.04,0.05 -0.09,0.09 -0.14,0.11 -0.07,0.03 -0.14,0.05 -0.2,0.06 l -0.52,0.07 z" inkscape:connector-curvature="0" style="fill:#e4e7eb;fill-rule:evenodd;stroke:none;stroke-width:0.28222001;stroke-linejoin:round;fill-opacity:1"/>
        <rect id="rect1389" height="1.21" width="1.04" y="76.806427" x="62.506477" class="BoundingBox" style="fill:none;fill-rule:evenodd;stroke:none;stroke-width:0.28222001;stroke-linejoin:round"/>
        <path id="path1391" d="m 62.596479,76.80643 0.94,0.07 -0.02,0.24 -0.59,-0.05 -0.01,0.19 0.55,0.04 -0.02,0.23 -0.55,-0.04 -0.02,0.22 0.61,0.04 -0.02,0.26 -0.95,-0.07 z" inkscape:connector-curvature="0" style="fill:#e4e7eb;fill-rule:evenodd;stroke:none;stroke-width:0.28222001;stroke-linejoin:round;fill-opacity:1"/>
        <rect id="rect1396" height="1.34" width="0.95999998" y="76.936432" x="63.71648" class="BoundingBox" style="fill:none;fill-rule:evenodd;stroke:none;stroke-width:0.28222001;stroke-linejoin:round"/>
        <path id="path1398" d="m 64.036479,76.93643 0.34,0.1 -0.24,0.81 0.53,0.16 -0.08,0.26 -0.87,-0.24 z" inkscape:connector-curvature="0" style="fill:#e4e7eb;fill-rule:evenodd;stroke:none;stroke-width:0.28222001;stroke-linejoin:round;fill-opacity:1"/>
        <rect id="rect1403" height="1.15" width="1.3099999" y="77.596428" x="65.286476" class="BoundingBox" style="fill:none;fill-rule:evenodd;stroke:none;stroke-width:0.28222001;stroke-linejoin:round"/>
        <path id="path1405" d="m 65.936479,78.19643 0.07,0.05 c 0.06,0.03 0.11,0.05 0.14,0.04 0.04,0 0.06,-0.02 0.08,-0.05 0.02,-0.03 0.03,-0.06 0.02,-0.09 0,-0.04 -0.03,-0.07 -0.09,-0.11 l -0.08,-0.05 z m -0.02,-0.6 0.48,0.32 c 0.1,0.07 0.17,0.15 0.18,0.23 0.02,0.09 0,0.18 -0.06,0.27 -0.06,0.09 -0.14,0.15 -0.23,0.16 -0.09,0.02 -0.2,-0.01 -0.31,-0.09 l -0.16,-0.1 -0.24,0.35 -0.29,-0.2 z" inkscape:connector-curvature="0" style="fill:#e4e7eb;fill-rule:evenodd;stroke:none;stroke-width:0.28222001;stroke-linejoin:round;fill-opacity:1"/>
        <rect id="rect1410" height="1.38" width="1.38" y="78.596428" x="66.296478" class="BoundingBox" style="fill:none;fill-rule:evenodd;stroke:none;stroke-width:0.28222001;stroke-linejoin:round"/>
        <path id="path1412" d="m 67.136479,79.30643 0.19,-0.38 -0.37,0.21 z m -0.12,0.22 -0.28,-0.27 -0.17,0.09 -0.27,-0.25 1.11,-0.5 0.26,0.26 -0.48,1.11 -0.26,-0.26 z" inkscape:connector-curvature="0" style="fill:#e4e7eb;fill-rule:evenodd;stroke:none;stroke-width:0.28222001;stroke-linejoin:round;fill-opacity:1"/>
        <rect id="rect1417" height="1.5599999" width="1.41" y="79.476433" x="67.296478" class="BoundingBox" style="fill:none;fill-rule:evenodd;stroke:none;stroke-width:0.28222001;stroke-linejoin:round"/>
        <path id="path1419" d="m 68.046479,80.01643 0.08,0.13 c 0.01,0.01 0.03,0.03 0.07,0.07 0.01,0.01 0.03,0.02 0.06,0.02 0.02,0.01 0.04,0 0.06,-0.01 0.04,-0.02 0.06,-0.05 0.06,-0.08 0.01,-0.03 -0.01,-0.07 -0.05,-0.12 l -0.08,-0.13 z m -0.75,0.07 0.95,-0.61 0.32,0.49 c 0.06,0.09 0.1,0.17 0.11,0.22 0.02,0.06 0.01,0.12 -0.01,0.17 -0.02,0.06 -0.07,0.11 -0.12,0.15 -0.06,0.03 -0.11,0.05 -0.16,0.05 -0.06,0 -0.12,-0.01 -0.17,-0.03 -0.03,-0.02 -0.06,-0.04 -0.1,-0.08 0.01,0.04 0.02,0.07 0.02,0.1 0,0.01 -0.01,0.04 -0.02,0.07 -0.02,0.04 -0.03,0.07 -0.04,0.08 l -0.18,0.33 -0.21,-0.34 0.19,-0.34 c 0.02,-0.05 0.03,-0.08 0.04,-0.1 0,-0.03 -0.01,-0.06 -0.03,-0.09 l -0.01,-0.02 -0.39,0.24 z" inkscape:connector-curvature="0" style="fill:#e4e7eb;fill-rule:evenodd;stroke:none;stroke-width:0.28222001;stroke-linejoin:round;fill-opacity:1"/>
        <rect id="rect1424" height="1.17" width="1.35" y="81.056427" x="67.976479" class="BoundingBox" style="fill:none;fill-rule:evenodd;stroke:none;stroke-width:0.28222001;stroke-linejoin:round"/>
        <path id="path1426" d="m 68.636479,81.59643 0.34,-0.25 -0.42,0.02 z m -0.2,0.15 -0.14,-0.37 -0.2,0.01 -0.12,-0.33 1.21,0.02 0.13,0.35 -0.91,0.79 -0.13,-0.34 z" inkscape:connector-curvature="0" style="fill:#e4e7eb;fill-rule:evenodd;stroke:none;stroke-width:0.28222001;stroke-linejoin:round;fill-opacity:1"/>
        <rect id="rect1431" height="1.23" width="1.2" y="82.306427" x="68.526482" class="BoundingBox" style="fill:none;fill-rule:evenodd;stroke:none;stroke-width:0.28222001;stroke-linejoin:round"/>
        <path id="path1433" d="m 68.976479,82.94643 0.23,-0.03 0.07,0.54 -0.49,0.06 c -0.08,-0.09 -0.14,-0.18 -0.18,-0.25 -0.03,-0.08 -0.06,-0.18 -0.07,-0.29 -0.02,-0.13 -0.01,-0.24 0.03,-0.33 0.03,-0.09 0.09,-0.16 0.17,-0.22 0.09,-0.06 0.19,-0.09 0.31,-0.11 0.13,-0.01 0.24,0 0.33,0.04 0.1,0.04 0.18,0.1 0.24,0.2 0.04,0.07 0.07,0.17 0.09,0.29 0.01,0.13 0.01,0.22 0,0.29 -0.01,0.07 -0.04,0.12 -0.09,0.17 -0.04,0.04 -0.09,0.08 -0.16,0.11 l -0.1,-0.33 c 0.04,-0.02 0.07,-0.05 0.08,-0.08 0.02,-0.04 0.03,-0.08 0.02,-0.13 -0.01,-0.08 -0.04,-0.14 -0.1,-0.17 -0.06,-0.04 -0.14,-0.06 -0.26,-0.04 -0.12,0.01 -0.21,0.05 -0.26,0.1 -0.04,0.05 -0.06,0.12 -0.05,0.2 0,0.04 0.01,0.07 0.03,0.11 0.01,0.04 0.04,0.08 0.07,0.12 l 0.12,-0.01 z" inkscape:connector-curvature="0" style="fill:#e4e7eb;fill-rule:evenodd;stroke:none;stroke-width:0.28222001;stroke-linejoin:round;fill-opacity:1"/>
        <rect id="rect1438" height="1.17" width="1.23" y="83.826431" x="68.546478" class="BoundingBox" style="fill:none;fill-rule:evenodd;stroke:none;stroke-width:0.28222001;stroke-linejoin:round"/>
        <path id="path1440" d="m 69.686479,84.63643 -0.04,0.35 -0.67,-0.08 c -0.06,0 -0.12,-0.02 -0.19,-0.05 -0.06,-0.03 -0.1,-0.07 -0.14,-0.11 -0.04,-0.05 -0.07,-0.1 -0.08,-0.15 -0.02,-0.07 -0.02,-0.15 -0.01,-0.25 0.01,-0.05 0.02,-0.12 0.03,-0.19 0.02,-0.06 0.04,-0.11 0.07,-0.15 0.02,-0.04 0.06,-0.08 0.1,-0.11 0.05,-0.03 0.11,-0.05 0.15,-0.06 0.08,-0.01 0.14,-0.01 0.2,-0.01 l 0.66,0.08 -0.04,0.34 -0.68,-0.08 c -0.06,0 -0.11,0.01 -0.15,0.04 -0.05,0.03 -0.07,0.08 -0.07,0.14 -0.01,0.06 0,0.11 0.04,0.15 0.03,0.04 0.08,0.06 0.14,0.07 z" inkscape:connector-curvature="0" style="fill:#e4e7eb;fill-rule:evenodd;stroke:none;stroke-width:0.28222001;stroke-linejoin:round;fill-opacity:1"/>
        <rect id="rect1445" height="1.1900001" width="1.35" y="85.076431" x="68.076477" class="BoundingBox" style="fill:none;fill-rule:evenodd;stroke:none;stroke-width:0.28222001;stroke-linejoin:round"/>
        <path id="path1447" d="m 68.636479,85.91643 0.43,0.02 -0.34,-0.25 z m -0.25,-0.01 0.13,-0.37 -0.16,-0.11 0.12,-0.35 0.94,0.78 -0.13,0.36 -1.21,0.03 0.12,-0.35 z" inkscape:connector-curvature="0" style="fill:#e4e7eb;fill-rule:evenodd;stroke:none;stroke-width:0.28222001;stroke-linejoin:round;fill-opacity:1"/>
        <rect id="rect1452" height="1.27" width="1.39" y="86.736427" x="67.636482" class="BoundingBox" style="fill:none;fill-rule:evenodd;stroke:none;stroke-width:0.28222001;stroke-linejoin:round"/>
        <path id="path1454" d="m 69.016479,86.93643 -0.19,0.34 h -0.45 l 0.22,0.39 -0.2,0.33 -0.34,-0.71 -0.42,-0.25 0.18,-0.3 0.42,0.24 z" inkscape:connector-curvature="0" style="fill:#e4e7eb;fill-rule:evenodd;stroke:none;stroke-width:0.28222001;stroke-linejoin:round;fill-opacity:1"/>
        <rect id="rect1459" height="18.190001" width="18.23" y="74.726433" x="53.586479" class="BoundingBox" style="fill:none;fill-rule:evenodd;stroke:none;stroke-width:0.28222001;stroke-linejoin:round"/>
        <path id="path1461" d="m 62.696479,75.11643 c -4.81,0 -8.72,3.9 -8.72,8.69 0,4.81 3.91,8.71 8.72,8.71 4.8,0 8.71,-3.9 8.71,-8.71 0,-4.79 -3.91,-8.69 -8.71,-8.69 z m 0,17.79 c -5.03,0 -9.11,-4.07 -9.11,-9.1 0,-5.01 4.08,-9.08 9.11,-9.08 5.02,0 9.11,4.07 9.11,9.08 0,5.03 -4.09,9.1 -9.11,9.1 z" inkscape:connector-curvature="0" style="fill:#e4e7eb;fill-rule:evenodd;stroke:none;stroke-width:0.28222001;stroke-linejoin:round;fill-opacity:1"/>
        <rect id="rect1466" height="15.08" width="15.1" y="76.276428" x="55.156479" class="BoundingBox" style="fill:none;fill-rule:evenodd;stroke:none;stroke-width:0.28222001;stroke-linejoin:round"/>
        <path id="path1468" d="m 62.696479,76.44643 c -4.07,0 -7.39,3.3 -7.39,7.36 0,4.07 3.32,7.38 7.39,7.38 4.08,0 7.39,-3.31 7.39,-7.38 0,-4.06 -3.31,-7.36 -7.39,-7.36 z m 0,14.9 c -4.16,0 -7.54,-3.38 -7.54,-7.54 0,-4.14 3.38,-7.52 7.54,-7.52 4.16,0 7.55,3.38 7.55,7.52 0,4.16 -3.39,7.54 -7.55,7.54 z" inkscape:connector-curvature="0" style="fill:#e4e7eb;fill-rule:evenodd;stroke:none;stroke-width:0.28222001;stroke-linejoin:round;fill-opacity:1"/>
        <rect id="rect1473" height="11.26" width="11.28" y="78.166428" x="57.066479" class="BoundingBox" style="fill:none;fill-rule:evenodd;stroke:none;stroke-width:0.28222001;stroke-linejoin:round"/>
        <path id="path1475" d="m 62.696479,78.32643 c -3.02,0 -5.48,2.45 -5.48,5.47 0,3.01 2.46,5.46 5.48,5.46 3.02,0 5.48,-2.45 5.48,-5.46 0,-3.02 -2.46,-5.47 -5.48,-5.47 z m 0,11.09 c -3.11,0 -5.63,-2.52 -5.63,-5.62 0,-3.11 2.52,-5.63 5.63,-5.63 3.11,0 5.64,2.52 5.64,5.63 0,3.1 -2.53,5.62 -5.64,5.62 z" inkscape:connector-curvature="0" style="fill:#e4e7eb;fill-rule:evenodd;stroke:none;stroke-width:0.28222001;stroke-linejoin:round;fill-opacity:1"/>
        <rect id="rect1480" height="0.0099999998" width="0.0099999998" y="86.17643" x="66.30648" class="BoundingBox" style="fill:none;fill-rule:evenodd;stroke:none;stroke-width:0.28222001;stroke-linejoin:round"/>
        <path id="path1482" d="M 66.306479,86.17643 Z" inkscape:connector-curvature="0" style="fill:#1d254b;fill-rule:evenodd;stroke:none;stroke-width:0.28222001;stroke-linejoin:round"/>
      </g>
      <g id="g2153">
        <path inkscape:connector-curvature="0" style="fill:none;fill-rule:evenodd;stroke:none;stroke-width:0.28222001;stroke-linejoin:round" d="m 75.226479,80.69643 h 38.090001 v 4.98 H 75.226479 Z" id="rect1487"/>
        <path id="path2829" style="fill:#e4e7eb;fill-rule:evenodd;stroke:none;stroke-width:0.28222001;stroke-linejoin:round;fill-opacity:1" d="m 77.912744,81.6357 v 0.65576 q -0.255249,-0.11414 -0.498047,-0.17224 -0.242798,-0.05811 -0.458618,-0.05811 -0.286377,0 -0.42334,0.07886 -0.136963,0.07886 -0.136963,0.24487 0,0.12451 0.09131,0.19507 0.09338,0.06848 0.336182,0.11829 l 0.340332,0.06848 q 0.516724,0.10376 0.734619,0.31543 0.217896,0.21167 0.217896,0.60181 0,0.51257 -0.305054,0.76367 -0.302978,0.24902 -0.927612,0.24902 -0.294678,0 -0.591431,-0.05603 -0.296753,-0.05603 -0.593506,-0.16602 v -0.67443 q 0.296753,0.15771 0.572754,0.23864 0.278076,0.07886 0.535401,0.07886 0.261474,0 0.400512,-0.08716 0.139038,-0.08716 0.139038,-0.24902 0,-0.14526 -0.09546,-0.22412 -0.09338,-0.07886 -0.37561,-0.14111 l -0.309204,-0.06849 q -0.464844,-0.09961 -0.680664,-0.3175 -0.213745,-0.2179 -0.213745,-0.58728 0,-0.46277 0.298828,-0.71179 0.298828,-0.24903 0.859131,-0.24903 0.255249,0 0.525024,0.03943 0.269775,0.03736 0.558228,0.11414 z" inkscape:connector-curvature="0"/>
        <path id="path2831" style="fill:#e4e7eb;fill-rule:evenodd;stroke:none;stroke-width:0.28222001;stroke-linejoin:round;fill-opacity:1" d="m 80.697656,84.07198 h -1.249268 l -0.197143,0.56445 h -0.803101 l 1.147583,-3.09827 h 0.952515 l 1.147583,3.09827 h -0.803101 z m -1.050049,-0.57483 h 0.848755 l -0.42334,-1.23267 z" inkscape:connector-curvature="0"/>
        <path id="path2833" style="fill:#e4e7eb;fill-rule:evenodd;stroke:none;stroke-width:0.28222001;stroke-linejoin:round;fill-opacity:1" d="m 82.106713,81.53816 h 0.798951 v 2.49439 h 1.402832 v 0.60388 h -2.201783 z" inkscape:connector-curvature="0"/>
        <path id="path2835" style="fill:#e4e7eb;fill-rule:evenodd;stroke:none;stroke-width:0.28222001;stroke-linejoin:round;fill-opacity:1" d="m 84.663354,81.53816 h 0.79895 v 1.8573 q 0,0.38391 0.124512,0.54993 0.126587,0.16394 0.410889,0.16394 0.286377,0 0.410888,-0.16394 0.126587,-0.16602 0.126587,-0.54993 v -1.8573 h 0.79895 v 1.8573 q 0,0.65784 -0.329956,0.9795 -0.329956,0.32165 -1.006469,0.32165 -0.674439,0 -1.004395,-0.32165 -0.329956,-0.32166 -0.329956,-0.9795 z" inkscape:connector-curvature="0"/>
        <path id="path2837" style="fill:#e4e7eb;fill-rule:evenodd;stroke:none;stroke-width:0.28222001;stroke-linejoin:round;fill-opacity:1" d="m 88.913354,82.14205 v 1.8905 h 0.286377 q 0.489746,0 0.74707,-0.2428 0.2594,-0.2428 0.2594,-0.70557 0,-0.46069 -0.257325,-0.70141 -0.257324,-0.24072 -0.749145,-0.24072 z m -0.79895,-0.60389 h 0.842529 q 0.705567,0 1.050049,0.10169 0.346558,0.09961 0.593506,0.34033 0.217895,0.20959 0.32373,0.48352 0.105835,0.27393 0.105835,0.62048 0,0.35071 -0.105835,0.62671 -0.105835,0.27393 -0.32373,0.48352 -0.249024,0.24073 -0.597656,0.34241 -0.348633,0.09961 -1.045899,0.09961 h -0.842529 z" inkscape:connector-curvature="0"/>
        <path id="path2839" style="fill:#e4e7eb;fill-rule:evenodd;stroke:none;stroke-width:0.28222001;stroke-linejoin:round;fill-opacity:1" d="m 93.12185,81.53816 h 1.32605 q 0.591431,0 0.90686,0.26355 0.317505,0.26148 0.317505,0.74707 0,0.48767 -0.317505,0.75122 -0.315429,0.26148 -0.90686,0.26148 h -0.5271 v 1.07495 h -0.79895 z m 0.79895,0.57898 v 0.86536 h 0.442017 q 0.232422,0 0.359009,-0.11206 0.126587,-0.11414 0.126587,-0.32166 0,-0.20752 -0.126587,-0.31958 -0.126587,-0.11206 -0.359009,-0.11206 z" inkscape:connector-curvature="0"/>
        <path id="path2841" style="fill:#e4e7eb;fill-rule:evenodd;stroke:none;stroke-width:0.28222001;stroke-linejoin:round;fill-opacity:1" d="m 96.236718,81.53816 h 0.79895 v 1.8573 q 0,0.38391 0.124512,0.54993 0.126587,0.16394 0.410889,0.16394 0.286377,0 0.410889,-0.16394 0.126586,-0.16602 0.126586,-0.54993 v -1.8573 h 0.798951 v 1.8573 q 0,0.65784 -0.329956,0.9795 -0.329956,0.32165 -1.00647,0.32165 -0.674439,0 -1.004395,-0.32165 -0.329956,-0.32166 -0.329956,-0.9795 z m 1.390381,-0.84253 h 0.58728 l -0.59143,0.54786 H 97.21621 Z" inkscape:connector-curvature="0"/>
        <path id="path2843" style="fill:#e4e7eb;fill-rule:evenodd;stroke:none;stroke-width:0.28222001;stroke-linejoin:round;fill-opacity:1" d="m 100.92873,82.73763 q 0.18885,0 0.28638,-0.08301 0.0975,-0.08301 0.0975,-0.24487 0,-0.15979 -0.0975,-0.2428 -0.0975,-0.08509 -0.28638,-0.08509 h -0.44201 v 0.65577 z m 0.027,1.3551 q 0.24073,0 0.36109,-0.10169 0.12243,-0.10168 0.12243,-0.30712 0,-0.2013 -0.12036,-0.30091 -0.12036,-0.10168 -0.36316,-0.10168 h -0.46899 v 0.8114 z m 0.74292,-1.11438 q 0.25733,0.07471 0.39844,0.276 0.14111,0.20129 0.14111,0.4939 0,0.44824 -0.30298,0.66821 -0.30297,0.21997 -0.92138,0.21997 h -1.326052 v -3.09827 h 1.199462 q 0.64539,0 0.93384,0.19507 0.29053,0.19507 0.29053,0.62464 0,0.22619 -0.10584,0.38598 -0.10583,0.15772 -0.30713,0.2345 z" inkscape:connector-curvature="0"/>
        <path id="path2845" style="fill:#e4e7eb;fill-rule:evenodd;stroke:none;stroke-width:0.28222001;stroke-linejoin:round;fill-opacity:1" d="m 102.92715,81.53816 h 0.79895 v 2.49439 h 1.40283 v 0.60388 h -2.20178 z" inkscape:connector-curvature="0"/>
        <path id="path2847" style="fill:#e4e7eb;fill-rule:evenodd;stroke:none;stroke-width:0.28222001;stroke-linejoin:round;fill-opacity:1" d="m 105.63528,81.53816 h 0.79895 v 3.09827 h -0.79895 z" inkscape:connector-curvature="0"/>
        <path id="path2849" style="fill:#e4e7eb;fill-rule:evenodd;stroke:none;stroke-width:0.28222001;stroke-linejoin:round;fill-opacity:1" d="m 109.67361,84.46626 q -0.21997,0.11414 -0.45862,0.17225 -0.23865,0.0581 -0.49805,0.0581 -0.77405,0 -1.22644,-0.43164 -0.45239,-0.43372 -0.45239,-1.17456 0,-0.74292 0.45239,-1.17456 0.45239,-0.43372 1.22644,-0.43372 0.2594,0 0.49805,0.05811 0.23865,0.0581 0.45862,0.17224 v 0.64124 q -0.22205,-0.15149 -0.43787,-0.22205 -0.21582,-0.07056 -0.45447,-0.07056 -0.42749,0 -0.67236,0.27393 -0.24487,0.27392 -0.24487,0.75537 0,0.47937 0.24487,0.7533 0.24487,0.27392 0.67236,0.27392 0.23865,0 0.45447,-0.07056 0.21582,-0.07055 0.43787,-0.22204 z" inkscape:connector-curvature="0"/>
        <path id="path2851" style="fill:#e4e7eb;fill-rule:evenodd;stroke:none;stroke-width:0.28222001;stroke-linejoin:round;fill-opacity:1" d="m 112.21572,84.07198 h -1.24927 l -0.19714,0.56445 h -0.8031 l 1.14758,-3.09827 h 0.95252 l 1.14758,3.09827 h -0.8031 z m -1.05005,-0.57483 h 0.84876 l -0.42334,-1.23267 z" inkscape:connector-curvature="0"/>
        <path inkscape:connector-curvature="0" style="fill:none;fill-rule:evenodd;stroke:none;stroke-width:0.28222001;stroke-linejoin:round" d="m 75.316479,84.95643 h 49.910001 v 4.98 H 75.316479 Z" id="rect1500"/>
        <path id="path2795" style="fill:#e4e7eb;fill-rule:evenodd;stroke:none;stroke-width:0.28222001;stroke-linejoin:round;fill-opacity:1" d="m 75.324975,85.79816 h 0.873657 l 0.705567,1.10401 0.705566,-1.10401 h 0.875733 l -1.180787,1.79297 v 1.3053 h -0.79895 v -1.3053 z" inkscape:connector-curvature="0"/>
        <path id="path2797" style="fill:#e4e7eb;fill-rule:evenodd;stroke:none;stroke-width:0.28222001;stroke-linejoin:round;fill-opacity:1" d="m 81.554711,86.99763 q 0.188843,0 0.286377,-0.08301 0.09754,-0.08301 0.09754,-0.24487 0,-0.15979 -0.09754,-0.2428 -0.09753,-0.08509 -0.286377,-0.08509 h -0.442016 v 0.65577 z m 0.02698,1.3551 q 0.240723,0 0.361084,-0.10169 0.122436,-0.10168 0.122436,-0.30712 0,-0.2013 -0.120361,-0.30091 -0.120361,-0.10168 -0.363159,-0.10168 h -0.468994 v 0.8114 z m 0.74292,-1.11438 q 0.257324,0.07471 0.398437,0.276 0.141114,0.20129 0.141114,0.4939 0,0.44824 -0.302979,0.66821 -0.302978,0.21997 -0.921387,0.21997 h -1.326049 v -3.09827 h 1.199463 q 0.645385,0 0.933837,0.19507 0.290528,0.19507 0.290528,0.62464 0,0.22619 -0.105835,0.38598 -0.105835,0.15772 -0.307129,0.2345 z" inkscape:connector-curvature="0"/>
        <path id="path2799" style="fill:#e4e7eb;fill-rule:evenodd;stroke:none;stroke-width:0.28222001;stroke-linejoin:round;fill-opacity:1" d="m 83.553125,85.79816 h 0.79895 v 3.09827 h -0.79895 z" inkscape:connector-curvature="0"/>
        <path id="path2801" style="fill:#e4e7eb;fill-rule:evenodd;stroke:none;stroke-width:0.28222001;stroke-linejoin:round;fill-opacity:1" d="m 85.134423,85.79816 h 2.156128 v 0.60389 h -1.357177 v 0.5769 h 1.276245 v 0.60388 h -1.276245 v 0.70972 h 1.402832 v 0.60388 h -2.201783 z" inkscape:connector-curvature="0"/>
        <path id="path2803" style="fill:#e4e7eb;fill-rule:evenodd;stroke:none;stroke-width:0.28222001;stroke-linejoin:round;fill-opacity:1" d="m 88.037622,85.79816 h 0.892334 l 1.126831,2.125 v -2.125 h 0.757446 v 3.09827 h -0.892334 l -1.126831,-2.125 v 2.125 h -0.757446 z" inkscape:connector-curvature="0"/>
        <path id="path2805" style="fill:#e4e7eb;fill-rule:evenodd;stroke:none;stroke-width:0.28222001;stroke-linejoin:round;fill-opacity:1" d="m 91.594506,85.79816 h 2.156128 v 0.60389 h -1.357177 v 0.5769 h 1.276245 v 0.60388 h -1.276245 v 0.70972 h 1.402832 v 0.60388 h -2.201783 z" inkscape:connector-curvature="0"/>
        <path id="path2807" style="fill:#e4e7eb;fill-rule:evenodd;stroke:none;stroke-width:0.28222001;stroke-linejoin:round;fill-opacity:1" d="m 96.653833,85.8957 v 0.65576 q -0.25525,-0.11414 -0.498047,-0.17224 -0.242798,-0.05811 -0.458619,-0.05811 -0.286376,0 -0.423339,0.07886 -0.136963,0.07886 -0.136963,0.24487 0,0.12451 0.09131,0.19507 0.09338,0.06848 0.336182,0.11829 l 0.340332,0.06848 q 0.516724,0.10376 0.734619,0.31543 0.217896,0.21167 0.217896,0.60181 0,0.51257 -0.305054,0.76367 -0.302979,0.24902 -0.927612,0.24902 -0.294678,0 -0.591431,-0.05603 -0.296753,-0.05603 -0.593506,-0.16602 v -0.67443 q 0.296753,0.15771 0.572754,0.23864 0.278076,0.07886 0.5354,0.07886 0.261475,0 0.400513,-0.08716 0.139038,-0.08716 0.139038,-0.24902 0,-0.14526 -0.09546,-0.22412 -0.09338,-0.07886 -0.37561,-0.14111 l -0.309204,-0.06849 q -0.464844,-0.09961 -0.680664,-0.3175 -0.213745,-0.2179 -0.213745,-0.58728 0,-0.46277 0.298828,-0.71179 0.298828,-0.24903 0.859131,-0.24903 0.255249,0 0.525024,0.03943 0.269775,0.03736 0.558228,0.11414 z" inkscape:connector-curvature="0"/>
        <path id="path2809" style="fill:#e4e7eb;fill-rule:evenodd;stroke:none;stroke-width:0.28222001;stroke-linejoin:round;fill-opacity:1" d="m 97.189233,85.79816 h 2.855467 v 0.60389 h -1.02722 v 2.49438 h -0.79895 v -2.49438 h -1.029297 z" inkscape:connector-curvature="0"/>
        <path id="path2811" style="fill:#e4e7eb;fill-rule:evenodd;stroke:none;stroke-width:0.28222001;stroke-linejoin:round;fill-opacity:1" d="m 102.00784,88.33198 h -1.24927 l -0.19714,0.56445 h -0.803105 l 1.147585,-3.09827 h 0.95251 l 1.14758,3.09827 h -0.8031 z m -1.05005,-0.57483 h 0.84875 l -0.42334,-1.23267 z" inkscape:connector-curvature="0"/>
        <path id="path2813" style="fill:#e4e7eb;fill-rule:evenodd;stroke:none;stroke-width:0.28222001;stroke-linejoin:round;fill-opacity:1" d="m 104.55203,87.17194 q 0.25109,0 0.359,-0.09338 0.10999,-0.09338 0.10999,-0.30713 0,-0.21167 -0.10999,-0.30298 -0.10791,-0.09131 -0.359,-0.09131 h -0.33619 v 0.7948 z m -0.33619,0.552 v 1.17249 h -0.79895 v -3.09827 h 1.22022 q 0.61218,0 0.89648,0.20545 0.28638,0.20544 0.28638,0.64953 0,0.30713 -0.14941,0.50428 -0.14734,0.19714 -0.44617,0.29052 0.16394,0.03736 0.2926,0.17017 0.13074,0.13074 0.26355,0.39844 l 0.43372,0.87988 h -0.85083 l -0.37769,-0.7699 q -0.11413,-0.23242 -0.23242,-0.3175 -0.11621,-0.08509 -0.31128,-0.08509 z" inkscape:connector-curvature="0"/>
        <path id="path2815" style="fill:#e4e7eb;fill-rule:evenodd;stroke:none;stroke-width:0.28222001;stroke-linejoin:round;fill-opacity:1" d="m 110.32522,85.8957 v 0.65576 q -0.25525,-0.11414 -0.49805,-0.17224 -0.2428,-0.05811 -0.45862,-0.05811 -0.28637,0 -0.42334,0.07886 -0.13696,0.07886 -0.13696,0.24487 0,0.12451 0.0913,0.19507 0.0934,0.06848 0.33618,0.11829 l 0.34033,0.06848 q 0.51673,0.10376 0.73462,0.31543 0.2179,0.21167 0.2179,0.60181 0,0.51257 -0.30506,0.76367 -0.30297,0.24902 -0.92761,0.24902 -0.29467,0 -0.59143,-0.05603 -0.29675,-0.05603 -0.5935,-0.16602 v -0.67443 q 0.29675,0.15771 0.57275,0.23864 0.27808,0.07886 0.5354,0.07886 0.26148,0 0.40051,-0.08716 0.13904,-0.08716 0.13904,-0.24902 0,-0.14526 -0.0955,-0.22412 -0.0934,-0.07886 -0.37561,-0.14111 l -0.3092,-0.06849 q -0.46485,-0.09961 -0.68067,-0.3175 -0.21374,-0.2179 -0.21374,-0.58728 0,-0.46277 0.29883,-0.71179 0.29883,-0.24903 0.85913,-0.24903 0.25525,0 0.52502,0.03943 0.26978,0.03736 0.55823,0.11414 z" inkscape:connector-curvature="0"/>
        <path id="path2817" style="fill:#e4e7eb;fill-rule:evenodd;stroke:none;stroke-width:0.28222001;stroke-linejoin:round;fill-opacity:1" d="m 112.64529,86.32111 q -0.36524,0 -0.56653,0.26978 -0.20129,0.26977 -0.20129,0.75952 0,0.48767 0.20129,0.75745 0.20129,0.26977 0.56653,0.26977 0.36731,0 0.5686,-0.26977 0.2013,-0.26978 0.2013,-0.75745 0,-0.48975 -0.2013,-0.75952 -0.20129,-0.26978 -0.5686,-0.26978 z m 0,-0.57898 q 0.74707,0 1.17041,0.42749 0.42334,0.42749 0.42334,1.18079 0,0.75122 -0.42334,1.17871 -0.42334,0.42749 -1.17041,0.42749 -0.745,0 -1.17041,-0.42749 -0.42334,-0.42749 -0.42334,-1.17871 0,-0.7533 0.42334,-1.18079 0.42541,-0.42749 1.17041,-0.42749 z" inkscape:connector-curvature="0"/>
        <path id="path2819" style="fill:#e4e7eb;fill-rule:evenodd;stroke:none;stroke-width:0.28222001;stroke-linejoin:round;fill-opacity:1" d="m 117.29995,88.72626 q -0.21997,0.11414 -0.45862,0.17225 -0.23864,0.0581 -0.49804,0.0581 -0.77405,0 -1.22645,-0.43164 -0.45239,-0.43372 -0.45239,-1.17456 0,-0.74292 0.45239,-1.17456 0.4524,-0.43372 1.22645,-0.43372 0.25939,0 0.49804,0.05811 0.23865,0.0581 0.45862,0.17224 v 0.64124 q -0.22204,-0.15149 -0.43787,-0.22205 -0.21582,-0.07056 -0.45446,-0.07056 -0.42749,0 -0.67237,0.27393 -0.24487,0.27392 -0.24487,0.75537 0,0.47937 0.24487,0.7533 0.24488,0.27392 0.67237,0.27392 0.23864,0 0.45446,-0.07056 0.21582,-0.07055 0.43787,-0.22204 z" inkscape:connector-curvature="0"/>
        <path id="path2821" style="fill:#e4e7eb;fill-rule:evenodd;stroke:none;stroke-width:0.28222001;stroke-linejoin:round;fill-opacity:1" d="m 117.96194,85.79816 h 0.79895 v 3.09827 h -0.79895 z" inkscape:connector-curvature="0"/>
        <path id="path2823" style="fill:#e4e7eb;fill-rule:evenodd;stroke:none;stroke-width:0.28222001;stroke-linejoin:round;fill-opacity:1" d="m 121.42336,88.33198 h -1.24926 l -0.19715,0.56445 h -0.8031 l 1.14759,-3.09827 h 0.95251 l 1.14758,3.09827 h -0.8031 z m -1.05004,-0.57483 h 0.84875 l -0.42334,-1.23267 z" inkscape:connector-curvature="0"/>
        <path id="path2825" style="fill:#e4e7eb;fill-rule:evenodd;stroke:none;stroke-width:0.28222001;stroke-linejoin:round;fill-opacity:1" d="m 122.83242,85.79816 h 0.79895 v 2.49439 h 1.40283 v 0.60388 h -2.20178 z" inkscape:connector-curvature="0"/>
        <path inkscape:connector-curvature="0" style="fill:none;fill-rule:evenodd;stroke:none;stroke-width:0.28222001;stroke-linejoin:round" d="m 75.396479,77.26643 h 20.11 v 3.62 h -20.11 z" id="rect1632"/>
        <path id="path2769" style="fill:#e4e7eb;fill-rule:evenodd;stroke:none;stroke-width:0.28222001;stroke-linejoin:round;fill-opacity:1" d="m 75.799746,77.89381 h 0.454145 l 0.574849,1.53293 0.577866,-1.53293 h 0.454145 v 2.25262 H 77.56352 v -1.97802 l -0.580884,1.545 h -0.306284 l -0.580884,-1.545 v 1.97802 h -0.295722 z" inkscape:connector-curvature="0"/>
        <path id="path2771" style="fill:#e4e7eb;fill-rule:evenodd;stroke:none;stroke-width:0.28222001;stroke-linejoin:round;fill-opacity:1" d="m 78.453706,78.45659 h 0.277617 v 1.68984 h -0.277617 z m 0,-0.65784 h 0.277617 v 0.35155 h -0.277617 z" inkscape:connector-curvature="0"/>
        <path id="path2773" style="fill:#e4e7eb;fill-rule:evenodd;stroke:none;stroke-width:0.28222001;stroke-linejoin:round;fill-opacity:1" d="m 80.716889,79.12649 v 1.01994 h -0.277617 v -1.01089 q 0,-0.2399 -0.09355,-0.35909 -0.09354,-0.11919 -0.280635,-0.11919 -0.224809,0 -0.354565,0.14333 -0.129756,0.14334 -0.129756,0.39078 v 0.95506 H 79.30164 v -1.68984 h 0.279126 v 0.26253 q 0.09958,-0.15239 0.233862,-0.22783 0.135791,-0.07544 0.31232,-0.07544 0.291196,0 0.440566,0.18105 0.14937,0.17955 0.14937,0.52959 z" inkscape:connector-curvature="0"/>
        <path id="path2775" style="fill:#e4e7eb;fill-rule:evenodd;stroke:none;stroke-width:0.28222001;stroke-linejoin:round;fill-opacity:1" d="m 81.270615,78.45659 h 0.277617 v 1.68984 h -0.277617 z m 0,-0.65784 h 0.277617 v 0.35155 h -0.277617 z" inkscape:connector-curvature="0"/>
        <path id="path2777" style="fill:#e4e7eb;fill-rule:evenodd;stroke:none;stroke-width:0.28222001;stroke-linejoin:round;fill-opacity:1" d="m 83.206391,78.50638 v 0.26253 q -0.117685,-0.06036 -0.244424,-0.09053 -0.126738,-0.03018 -0.262529,-0.03018 -0.206704,0 -0.310811,0.06337 -0.102597,0.06337 -0.102597,0.19011 0,0.09656 0.07393,0.15239 0.07393,0.05431 0.297232,0.1041 l 0.09505,0.02113 q 0.295722,0.06337 0.419443,0.17954 0.125229,0.11467 0.125229,0.32137 0,0.23538 -0.187089,0.37268 -0.185581,0.13729 -0.51148,0.13729 -0.135791,0 -0.283652,-0.02715 -0.146353,-0.02565 -0.309302,-0.07846 V 79.7979 q 0.153896,0.07997 0.303267,0.1207 0.14937,0.03923 0.295722,0.03923 0.196143,0 0.301758,-0.06639 0.105615,-0.06789 0.105615,-0.1901 0,-0.11316 -0.07695,-0.17351 -0.07544,-0.06036 -0.333442,-0.11618 l -0.09656,-0.02263 q -0.258003,-0.05432 -0.372671,-0.16597 -0.114668,-0.11316 -0.114668,-0.3093 0,-0.23839 0.168985,-0.36815 0.168984,-0.12975 0.479795,-0.12975 0.153896,0 0.289687,0.02263 0.135791,0.02263 0.250459,0.0679 z" inkscape:connector-curvature="0"/>
        <path id="path2779" style="fill:#e4e7eb;fill-rule:evenodd;stroke:none;stroke-width:0.28222001;stroke-linejoin:round;fill-opacity:1" d="m 84.013593,77.97679 v 0.4798 h 0.571831 v 0.21575 h -0.571831 v 0.91735 q 0,0.2067 0.05582,0.26554 0.05733,0.05885 0.230845,0.05885 h 0.285161 v 0.23235 h -0.285161 q -0.321372,0 -0.443584,-0.11919 -0.122212,-0.12071 -0.122212,-0.43755 v -0.91735 h -0.203686 v -0.21575 h 0.203686 v -0.4798 z" inkscape:connector-curvature="0"/>
        <path id="path2781" style="fill:#e4e7eb;fill-rule:evenodd;stroke:none;stroke-width:0.28222001;stroke-linejoin:round;fill-opacity:1" d="m 86.395971,79.2321 v 0.13579 h -1.276435 q 0.01811,0.28667 0.172002,0.43755 0.155405,0.14937 0.431513,0.14937 0.159932,0 0.309302,-0.03922 0.150879,-0.03923 0.29874,-0.11769 v 0.26253 q -0.14937,0.06337 -0.306284,0.09656 -0.156914,0.03319 -0.318354,0.03319 -0.404356,0 -0.641236,-0.23537 -0.235371,-0.23537 -0.235371,-0.63671 0,-0.41491 0.223301,-0.65783 0.224809,-0.24442 0.605024,-0.24442 0.340987,0 0.538638,0.22028 0.19916,0.21878 0.19916,0.59597 z m -0.277617,-0.08147 q -0.003,-0.22783 -0.128247,-0.36362 -0.123721,-0.13579 -0.328916,-0.13579 -0.232354,0 -0.372671,0.13126 -0.138809,0.13127 -0.159932,0.36966 z" inkscape:connector-curvature="0"/>
        <path id="path2783" style="fill:#e4e7eb;fill-rule:evenodd;stroke:none;stroke-width:0.28222001;stroke-linejoin:round;fill-opacity:1" d="m 87.83083,78.7161 q -0.04677,-0.02716 -0.102598,-0.03923 -0.05432,-0.01358 -0.120703,-0.01358 -0.235371,0 -0.36211,0.1539 -0.125229,0.15238 -0.125229,0.43905 v 0.89019 h -0.279126 v -1.68984 h 0.279126 v 0.26253 q 0.08751,-0.1539 0.227827,-0.22783 0.140317,-0.07544 0.340986,-0.07544 0.02867,0 0.06337,0.0045 0.0347,0.003 0.07695,0.01056 z" inkscape:connector-curvature="0"/>
        <path id="path2785" style="fill:#e4e7eb;fill-rule:evenodd;stroke:none;stroke-width:0.28222001;stroke-linejoin:round;fill-opacity:1" d="m 88.122026,78.45659 h 0.277617 v 1.68984 h -0.277617 z m 0,-0.65784 h 0.277617 v 0.35155 h -0.277617 z" inkscape:connector-curvature="0"/>
        <path id="path2787" style="fill:#e4e7eb;fill-rule:evenodd;stroke:none;stroke-width:0.28222001;stroke-linejoin:round;fill-opacity:1" d="m 89.635341,78.65122 q -0.2233,0 -0.353056,0.17502 -0.129756,0.17351 -0.129756,0.47678 0,0.30326 0.128247,0.47828 0.129756,0.17351 0.354565,0.17351 0.221792,0 0.351548,-0.17502 0.129756,-0.17502 0.129756,-0.47677 0,-0.30025 -0.129756,-0.47527 -0.129756,-0.17653 -0.351548,-0.17653 z m 0,-0.23537 q 0.36211,0 0.568814,0.23537 0.206704,0.23537 0.206704,0.6518 0,0.41491 -0.206704,0.65179 -0.206704,0.23537 -0.568814,0.23537 -0.363618,0 -0.570322,-0.23537 -0.205195,-0.23688 -0.205195,-0.65179 0,-0.41643 0.205195,-0.6518 0.206704,-0.23537 0.570322,-0.23537 z" inkscape:connector-curvature="0"/>
        <path id="path2789" style="fill:#e4e7eb;fill-rule:evenodd;stroke:none;stroke-width:0.28222001;stroke-linejoin:round;fill-opacity:1" d="m 92.965239,78.71308 v -0.91433 h 0.277617 v 2.34768 h -0.277617 v -0.25348 q -0.08751,0.15088 -0.221792,0.22481 -0.132774,0.07242 -0.319864,0.07242 -0.306284,0 -0.499409,-0.24442 -0.191616,-0.24442 -0.191616,-0.64274 0,-0.39832 0.191616,-0.64275 0.193125,-0.24442 0.499409,-0.24442 0.18709,0 0.319864,0.07393 0.134282,0.07242 0.221792,0.2233 z m -0.946011,0.58994 q 0,0.30628 0.12523,0.4813 0.126738,0.17351 0.347021,0.17351 0.220283,0 0.347021,-0.17351 0.126739,-0.17502 0.126739,-0.4813 0,-0.30629 -0.126739,-0.4798 -0.126738,-0.17502 -0.347021,-0.17502 -0.220283,0 -0.347021,0.17502 -0.12523,0.17351 -0.12523,0.4798 z" inkscape:connector-curvature="0"/>
        <path id="path2791" style="fill:#e4e7eb;fill-rule:evenodd;stroke:none;stroke-width:0.28222001;stroke-linejoin:round;fill-opacity:1" d="m 95.260107,79.2321 v 0.13579 h -1.276436 q 0.01811,0.28667 0.172002,0.43755 0.155406,0.14937 0.431514,0.14937 0.159932,0 0.309302,-0.03922 0.150879,-0.03923 0.29874,-0.11769 v 0.26253 q -0.14937,0.06337 -0.306284,0.09656 -0.156914,0.03319 -0.318355,0.03319 -0.404355,0 -0.641235,-0.23537 -0.235371,-0.23537 -0.235371,-0.63671 0,-0.41491 0.223301,-0.65783 0.224809,-0.24442 0.605024,-0.24442 0.340986,0 0.538638,0.22028 0.19916,0.21878 0.19916,0.59597 z M 94.98249,79.15063 q -0.003,-0.22783 -0.128247,-0.36362 -0.123721,-0.13579 -0.328916,-0.13579 -0.232354,0 -0.372671,0.13126 -0.138809,0.13127 -0.159932,0.36966 z" inkscape:connector-curvature="0"/>
      </g>
    </g>
  </g>
</svg>